<svg width="397" height="220" viewBox="0 0 397 220" fill="none" xmlns="http://www.w3.org/2000/svg">
<g filter="url(#filter0_d_621_1012)">
<path d="M71.2608 190.902C70.4796 190.883 69.503 190.873 68.3312 190.873C67.1593 190.854 65.88 190.834 64.4933 190.814C63.1261 190.795 61.6905 190.785 60.1866 190.785C58.7023 190.766 57.2472 190.756 55.8214 190.756C54.3956 190.736 53.0382 190.736 51.7491 190.756C50.4601 190.775 49.337 190.805 48.38 190.844V199.545C48.38 201.205 48.3995 202.66 48.4386 203.91C48.4972 205.141 48.5558 206.205 48.6144 207.104C48.6925 208.002 48.7804 208.754 48.878 209.359C48.9952 209.965 49.1124 210.473 49.2296 210.883V211H42.1983V210.883C42.3155 210.473 42.423 209.965 42.5206 209.359C42.6378 208.754 42.7355 208.002 42.8136 207.104C42.8917 206.205 42.9503 205.141 42.9894 203.91C43.0284 202.66 43.048 201.205 43.048 199.545V180.473C43.048 178.812 43.0284 177.367 42.9894 176.137C42.9503 174.887 42.8917 173.812 42.8136 172.914C42.7355 171.996 42.6378 171.234 42.5206 170.629C42.423 170.023 42.3155 169.516 42.1983 169.105V168.988H49.2296V169.105C49.1124 169.516 48.9952 170.023 48.878 170.629C48.7804 171.234 48.6925 171.996 48.6144 172.914C48.5558 173.812 48.4972 174.887 48.4386 176.137C48.3995 177.367 48.38 178.812 48.38 180.473V187.973C49.3956 188.012 50.548 188.041 51.837 188.061C53.1261 188.061 54.4737 188.061 55.88 188.061C57.2862 188.041 58.712 188.021 60.1573 188.002C61.6222 187.982 63.0284 187.963 64.3761 187.943C65.7433 187.904 67.0128 187.865 68.1847 187.826C69.3761 187.787 70.4015 187.748 71.2608 187.709V180.473C71.2608 178.812 71.2316 177.367 71.173 176.137C71.1339 174.887 71.0753 173.812 70.9972 172.914C70.9386 171.996 70.8507 171.234 70.7335 170.629C70.6358 170.023 70.5284 169.516 70.4112 169.105V168.988H77.4425V169.105C77.3253 169.516 77.2081 170.023 77.0909 170.629C76.9933 171.234 76.9054 171.996 76.8273 172.914C76.7491 173.812 76.6905 174.887 76.6515 176.137C76.6124 177.367 76.5929 178.812 76.5929 180.473V199.545C76.5929 201.205 76.6124 202.66 76.6515 203.91C76.6905 205.141 76.7491 206.205 76.8273 207.104C76.9054 208.002 76.9933 208.754 77.0909 209.359C77.2081 209.965 77.3253 210.473 77.4425 210.883V211H70.4112V210.883C70.5284 210.473 70.6358 209.965 70.7335 209.359C70.8507 208.754 70.9386 208.002 70.9972 207.104C71.0753 206.205 71.1339 205.141 71.173 203.91C71.2316 202.66 71.2608 201.205 71.2608 199.545V190.902ZM85.4991 179.506C87.4132 179.506 89.3761 179.506 91.3878 179.506C93.3995 179.486 95.2648 179.467 96.9835 179.447C98.7023 179.408 100.177 179.369 101.407 179.33C102.657 179.291 103.478 179.232 103.868 179.154L102.726 182.318C102.198 182.182 101.603 182.055 100.939 181.938C100.353 181.84 99.6398 181.752 98.7999 181.674C97.9796 181.576 97.0226 181.527 95.9288 181.527C95.5382 181.527 95.089 181.547 94.5812 181.586C94.0733 181.605 93.5851 181.635 93.1163 181.674C92.5694 181.713 92.0128 181.752 91.4464 181.791V193.363C93.0284 193.344 94.4542 193.305 95.7237 193.246C96.9933 193.188 98.0773 193.109 98.9757 193.012C100.03 192.934 100.958 192.826 101.759 192.689L101.056 196.176C99.9816 196.039 98.8976 195.922 97.8038 195.824C96.8663 195.727 95.8312 195.648 94.6983 195.59C93.5655 195.512 92.4816 195.473 91.4464 195.473V208.773C93.2628 208.773 94.9327 208.705 96.4562 208.568C97.9796 208.412 99.3077 208.246 100.441 208.07C101.769 207.855 102.97 207.611 104.044 207.338L103.37 211.176C103.077 211.156 102.599 211.127 101.935 211.088C101.29 211.068 100.607 211.049 99.8839 211.029C99.1808 211.029 98.5167 211.02 97.8917 211C97.2667 211 96.837 211 96.6026 211H85.4991V210.883C85.6358 210.473 85.753 209.945 85.8507 209.301C85.9679 208.656 86.0558 207.865 86.1144 206.928C86.1925 205.971 86.2511 204.838 86.2901 203.529C86.3292 202.221 86.3487 200.688 86.3487 198.93V191.547C86.3487 189.789 86.3292 188.266 86.2901 186.977C86.2511 185.668 86.1925 184.545 86.1144 183.607C86.0558 182.65 85.9679 181.85 85.8507 181.205C85.753 180.561 85.6358 180.033 85.4991 179.623V179.506ZM116.525 195.707C116.915 195.766 117.306 195.814 117.696 195.854C118.107 195.873 118.497 195.883 118.868 195.883C121.31 195.883 123.155 195.229 124.405 193.92C125.675 192.611 126.31 190.648 126.31 188.031C126.31 185.883 125.802 184.184 124.786 182.934C123.79 181.684 122.316 181.059 120.362 181.059C119.737 181.059 119.181 181.088 118.692 181.146C118.224 181.186 117.823 181.234 117.491 181.293C117.12 181.371 116.798 181.449 116.525 181.527V195.707ZM121.007 197.611C120.616 197.67 120.226 197.709 119.835 197.729C119.464 197.729 119.083 197.729 118.692 197.729C118.38 197.729 118.038 197.719 117.667 197.699C117.296 197.68 116.915 197.65 116.525 197.611V199.047C116.525 200.785 116.544 202.309 116.583 203.617C116.622 204.906 116.671 206.02 116.73 206.957C116.808 207.895 116.896 208.686 116.993 209.33C117.091 209.955 117.208 210.473 117.345 210.883V211H110.577V210.883C110.714 210.473 110.831 209.945 110.929 209.301C111.046 208.656 111.134 207.865 111.192 206.928C111.271 205.971 111.329 204.838 111.368 203.529C111.407 202.221 111.427 200.688 111.427 198.93V191.547C111.427 189.789 111.407 188.266 111.368 186.977C111.329 185.668 111.271 184.545 111.192 183.607C111.134 182.65 111.046 181.85 110.929 181.205C110.831 180.561 110.714 180.033 110.577 179.623V179.506C110.89 179.525 111.222 179.545 111.573 179.564C111.866 179.584 112.189 179.604 112.54 179.623C112.911 179.623 113.282 179.623 113.653 179.623C114.278 179.623 115.206 179.564 116.437 179.447C117.667 179.33 119.112 179.271 120.773 179.271C122.452 179.271 123.976 179.477 125.343 179.887C126.73 180.297 127.911 180.883 128.888 181.645C129.884 182.406 130.646 183.334 131.173 184.428C131.72 185.521 131.993 186.742 131.993 188.09C131.993 189.145 131.847 190.111 131.554 190.99C131.261 191.85 130.851 192.631 130.323 193.334C129.796 194.018 129.171 194.623 128.448 195.15C127.726 195.678 126.925 196.137 126.046 196.527L132.169 205.17C132.696 205.873 133.224 206.547 133.751 207.191C134.298 207.836 134.816 208.412 135.304 208.92C135.792 209.428 136.251 209.857 136.681 210.209C137.11 210.541 137.472 210.766 137.765 210.883V211H130.089C130.089 210.824 129.962 210.521 129.708 210.092C129.474 209.643 129.191 209.184 128.859 208.715C128.546 208.227 128.224 207.758 127.892 207.309C127.579 206.859 127.345 206.527 127.189 206.312L121.007 197.611ZM138.556 195.15C138.556 192.846 138.985 190.707 139.845 188.734C140.724 186.762 141.915 185.053 143.419 183.607C144.923 182.143 146.7 181 148.751 180.18C150.802 179.359 152.999 178.949 155.343 178.949C157.648 178.949 159.816 179.34 161.847 180.121C163.898 180.883 165.675 181.977 167.179 183.402C168.702 184.828 169.903 186.557 170.782 188.588C171.661 190.619 172.101 192.895 172.101 195.414C172.101 197.504 171.73 199.525 170.987 201.479C170.245 203.412 169.161 205.131 167.735 206.635C166.31 208.119 164.552 209.311 162.462 210.209C160.372 211.088 157.98 211.527 155.284 211.527C152.999 211.527 150.841 211.146 148.81 210.385C146.778 209.623 145.001 208.539 143.478 207.133C141.954 205.707 140.753 203.988 139.874 201.977C138.995 199.945 138.556 197.67 138.556 195.15ZM156.017 209.447C157.501 209.447 158.868 209.154 160.118 208.568C161.368 207.982 162.442 207.143 163.341 206.049C164.259 204.955 164.962 203.627 165.45 202.064C165.958 200.482 166.212 198.705 166.212 196.732C166.212 194.486 165.968 192.406 165.48 190.492C165.011 188.578 164.288 186.928 163.312 185.541C162.355 184.135 161.153 183.041 159.708 182.26C158.263 181.459 156.573 181.059 154.64 181.059C153.155 181.059 151.788 181.342 150.538 181.908C149.288 182.475 148.204 183.295 147.286 184.369C146.388 185.443 145.685 186.762 145.177 188.324C144.669 189.887 144.415 191.664 144.415 193.656C144.415 195.883 144.659 197.963 145.148 199.896C145.655 201.811 146.388 203.48 147.345 204.906C148.321 206.312 149.532 207.426 150.978 208.246C152.423 209.047 154.103 209.447 156.017 209.447ZM206.232 211.41H205.089L181.798 188.5V198.93C181.798 200.688 181.808 202.221 181.827 203.529C181.847 204.838 181.876 205.971 181.915 206.928C181.974 207.865 182.042 208.656 182.12 209.301C182.218 209.945 182.335 210.473 182.472 210.883V211H178.077V210.883C178.214 210.473 178.331 209.945 178.429 209.301C178.526 208.656 178.605 207.865 178.663 206.928C178.722 205.971 178.761 204.838 178.78 203.529C178.8 202.221 178.81 200.688 178.81 198.93V191.547C178.81 189.789 178.8 188.266 178.78 186.977C178.761 185.668 178.722 184.545 178.663 183.607C178.605 182.65 178.526 181.85 178.429 181.205C178.331 180.561 178.214 180.033 178.077 179.623V179.506H179.894L203.214 202.533V191.547C203.214 189.789 203.204 188.266 203.185 186.977C203.165 185.668 203.126 184.545 203.067 183.607C203.028 182.65 202.97 181.85 202.892 181.205C202.814 180.561 202.706 180.033 202.569 179.623V179.506H206.935V179.623C206.798 180.033 206.681 180.561 206.583 181.205C206.505 181.85 206.437 182.65 206.378 183.607C206.319 184.545 206.28 185.668 206.261 186.977C206.241 188.266 206.232 189.789 206.232 191.547V211.41ZM228.907 185.629H228.321C228.204 185.297 228.009 184.877 227.735 184.369C227.482 183.861 227.13 183.363 226.681 182.875C226.251 182.387 225.714 181.977 225.069 181.645C224.425 181.293 223.653 181.117 222.755 181.117C222.071 181.117 221.456 181.234 220.909 181.469C220.382 181.684 219.933 181.986 219.562 182.377C219.191 182.768 218.907 183.236 218.712 183.783C218.517 184.311 218.419 184.887 218.419 185.512C218.419 186.527 218.722 187.494 219.327 188.412C219.952 189.33 220.724 190.248 221.642 191.166C222.56 192.064 223.556 192.973 224.63 193.891C225.704 194.809 226.7 195.766 227.618 196.762C228.536 197.758 229.298 198.812 229.903 199.926C230.528 201.039 230.841 202.23 230.841 203.5C230.841 204.438 230.665 205.404 230.314 206.4C229.982 207.396 229.435 208.295 228.673 209.096C227.911 209.896 226.935 210.551 225.743 211.059C224.552 211.586 223.107 211.85 221.407 211.85C220.47 211.85 219.571 211.771 218.712 211.615C217.872 211.459 217.091 211.264 216.368 211.029C215.665 210.814 215.03 210.58 214.464 210.326C213.917 210.053 213.458 209.799 213.087 209.564L213.614 204.027H214.23C214.425 204.711 214.708 205.395 215.079 206.078C215.47 206.762 215.939 207.387 216.485 207.953C217.052 208.5 217.706 208.949 218.448 209.301C219.21 209.633 220.079 209.799 221.056 209.799C221.739 209.799 222.384 209.691 222.989 209.477C223.595 209.242 224.112 208.92 224.542 208.51C224.991 208.1 225.343 207.602 225.597 207.016C225.851 206.41 225.978 205.736 225.978 204.994C225.978 204.115 225.802 203.305 225.45 202.562C225.099 201.801 224.63 201.078 224.044 200.395C223.458 199.691 222.794 199.018 222.052 198.373C221.329 197.729 220.577 197.074 219.796 196.41C219.015 195.746 218.253 195.072 217.511 194.389C216.788 193.686 216.134 192.934 215.548 192.133C214.962 191.332 214.493 190.482 214.142 189.584C213.79 188.666 213.614 187.66 213.614 186.566C213.614 185.414 213.859 184.379 214.347 183.461C214.835 182.543 215.48 181.771 216.28 181.146C217.081 180.502 217.999 180.014 219.034 179.682C220.069 179.33 221.144 179.154 222.257 179.154C223.077 179.154 223.839 179.213 224.542 179.33C225.265 179.447 225.909 179.594 226.476 179.77C227.062 179.926 227.569 180.092 227.999 180.268C228.429 180.424 228.78 180.551 229.054 180.648L228.907 185.629ZM284.366 190.902C283.585 190.883 282.609 190.873 281.437 190.873C280.265 190.854 278.985 190.834 277.599 190.814C276.232 190.795 274.796 190.785 273.292 190.785C271.808 190.766 270.353 190.756 268.927 190.756C267.501 190.736 266.144 190.736 264.855 190.756C263.566 190.775 262.442 190.805 261.485 190.844V199.545C261.485 201.205 261.505 202.66 261.544 203.91C261.603 205.141 261.661 206.205 261.72 207.104C261.798 208.002 261.886 208.754 261.984 209.359C262.101 209.965 262.218 210.473 262.335 210.883V211H255.304V210.883C255.421 210.473 255.528 209.965 255.626 209.359C255.743 208.754 255.841 208.002 255.919 207.104C255.997 206.205 256.056 205.141 256.095 203.91C256.134 202.66 256.153 201.205 256.153 199.545V180.473C256.153 178.812 256.134 177.367 256.095 176.137C256.056 174.887 255.997 173.812 255.919 172.914C255.841 171.996 255.743 171.234 255.626 170.629C255.528 170.023 255.421 169.516 255.304 169.105V168.988H262.335V169.105C262.218 169.516 262.101 170.023 261.984 170.629C261.886 171.234 261.798 171.996 261.72 172.914C261.661 173.812 261.603 174.887 261.544 176.137C261.505 177.367 261.485 178.812 261.485 180.473V187.973C262.501 188.012 263.653 188.041 264.942 188.061C266.232 188.061 267.579 188.061 268.985 188.061C270.392 188.041 271.817 188.021 273.263 188.002C274.728 187.982 276.134 187.963 277.482 187.943C278.849 187.904 280.118 187.865 281.29 187.826C282.482 187.787 283.507 187.748 284.366 187.709V180.473C284.366 178.812 284.337 177.367 284.278 176.137C284.239 174.887 284.181 173.812 284.103 172.914C284.044 171.996 283.956 171.234 283.839 170.629C283.741 170.023 283.634 169.516 283.517 169.105V168.988H290.548V169.105C290.431 169.516 290.314 170.023 290.196 170.629C290.099 171.234 290.011 171.996 289.933 172.914C289.855 173.812 289.796 174.887 289.757 176.137C289.718 177.367 289.698 178.812 289.698 180.473V199.545C289.698 201.205 289.718 202.66 289.757 203.91C289.796 205.141 289.855 206.205 289.933 207.104C290.011 208.002 290.099 208.754 290.196 209.359C290.314 209.965 290.431 210.473 290.548 210.883V211H283.517V210.883C283.634 210.473 283.741 209.965 283.839 209.359C283.956 208.754 284.044 208.002 284.103 207.104C284.181 206.205 284.239 205.141 284.278 203.91C284.337 202.66 284.366 201.205 284.366 199.545V190.902ZM322.716 191.43C322.716 189.691 322.706 188.178 322.687 186.889C322.667 185.6 322.628 184.486 322.569 183.549C322.511 182.611 322.443 181.83 322.364 181.205C322.286 180.561 322.189 180.033 322.071 179.623V179.506H326.378V179.623C326.261 180.033 326.163 180.561 326.085 181.205C326.007 181.85 325.939 182.65 325.88 183.607C325.821 184.545 325.782 185.668 325.763 186.977C325.743 188.266 325.734 189.789 325.734 191.547V199.955C325.734 202.064 325.401 203.861 324.737 205.346C324.093 206.83 323.194 208.051 322.042 209.008C320.89 209.945 319.513 210.629 317.911 211.059C316.329 211.508 314.591 211.732 312.696 211.732C310.782 211.732 309.005 211.518 307.364 211.088C305.724 210.678 304.298 210.014 303.087 209.096C301.896 208.178 300.948 206.986 300.245 205.521C299.562 204.057 299.22 202.279 299.22 200.189V191.547C299.22 189.789 299.2 188.266 299.161 186.977C299.122 185.668 299.064 184.545 298.985 183.607C298.907 182.65 298.819 181.85 298.722 181.205C298.624 180.561 298.507 180.033 298.37 179.623V179.506H305.138V179.623C305.001 180.033 304.884 180.561 304.786 181.205C304.689 181.83 304.601 182.611 304.523 183.549C304.464 184.486 304.415 185.6 304.376 186.889C304.337 188.178 304.318 189.691 304.318 191.43V200.189C304.318 201.928 304.581 203.363 305.109 204.496C305.636 205.609 306.329 206.498 307.189 207.162C308.048 207.826 309.025 208.295 310.118 208.568C311.212 208.822 312.335 208.949 313.487 208.949C314.659 208.949 315.792 208.822 316.886 208.568C317.999 208.295 318.985 207.826 319.845 207.162C320.724 206.498 321.417 205.609 321.925 204.496C322.452 203.363 322.716 201.928 322.716 200.189V191.43ZM343.839 195.59C342.901 195.59 342.101 195.629 341.437 195.707C340.792 195.766 340.294 195.824 339.943 195.883V198.93C339.943 200.609 339.943 202.016 339.943 203.148C339.962 204.281 339.982 205.229 340.001 205.99C340.04 206.752 340.069 207.367 340.089 207.836C340.109 208.285 340.138 208.676 340.177 209.008C340.685 209.145 341.222 209.232 341.788 209.271C342.374 209.311 342.833 209.33 343.165 209.33C345.86 209.33 347.814 208.744 349.025 207.572C350.255 206.381 350.87 204.545 350.87 202.064C350.87 201.127 350.724 200.258 350.431 199.457C350.138 198.656 349.698 197.973 349.112 197.406C348.526 196.84 347.794 196.4 346.915 196.088C346.036 195.756 345.011 195.59 343.839 195.59ZM339.943 193.598C340.333 193.656 340.685 193.695 340.997 193.715C341.31 193.715 341.632 193.715 341.964 193.715C343.937 193.715 345.499 193.168 346.651 192.074C347.823 190.98 348.409 189.35 348.409 187.182C348.409 186.303 348.292 185.492 348.058 184.75C347.823 184.008 347.482 183.373 347.032 182.846C346.603 182.318 346.056 181.908 345.392 181.615C344.747 181.322 344.005 181.176 343.165 181.176C342.599 181.176 342.12 181.205 341.73 181.264C341.339 181.303 341.007 181.342 340.734 181.381C340.421 181.459 340.157 181.527 339.943 181.586V193.598ZM333.995 179.447C334.366 179.467 334.747 179.477 335.138 179.477C335.47 179.496 335.831 179.506 336.222 179.506C336.612 179.506 336.993 179.506 337.364 179.506C337.97 179.506 338.81 179.467 339.884 179.389C340.958 179.311 342.296 179.271 343.898 179.271C345.323 179.271 346.642 179.447 347.853 179.799C349.083 180.131 350.138 180.619 351.017 181.264C351.915 181.908 352.609 182.699 353.097 183.637C353.605 184.574 353.859 185.639 353.859 186.83C353.859 187.846 353.712 188.754 353.419 189.555C353.146 190.336 352.745 191.029 352.218 191.635C351.691 192.221 351.056 192.719 350.314 193.129C349.571 193.52 348.751 193.832 347.853 194.066C349.161 194.262 350.353 194.584 351.427 195.033C352.501 195.482 353.419 196.049 354.181 196.732C354.943 197.396 355.528 198.188 355.939 199.105C356.349 200.004 356.554 201.01 356.554 202.123C356.554 205.209 355.45 207.523 353.243 209.066C351.036 210.59 347.745 211.352 343.37 211.352C342.901 211.352 342.316 211.332 341.612 211.293C340.929 211.254 340.206 211.215 339.444 211.176C338.702 211.137 337.98 211.098 337.276 211.059C336.593 211.02 336.017 211 335.548 211H333.995V210.883C334.132 210.473 334.249 209.945 334.347 209.301C334.464 208.656 334.552 207.865 334.61 206.928C334.689 205.971 334.747 204.838 334.786 203.529C334.825 202.221 334.845 200.688 334.845 198.93V191.547C334.845 189.789 334.825 188.256 334.786 186.947C334.747 185.639 334.689 184.506 334.61 183.549C334.552 182.592 334.464 181.791 334.347 181.146C334.249 180.502 334.132 179.975 333.995 179.564V179.447Z" fill="#303030"/>
</g>
<g filter="url(#filter1_n_621_1012)">
<path d="M214.501 72.4797C214.551 77.1927 210.966 81.0519 206.493 81.0995C202.02 81.1472 198.353 77.3651 198.303 72.6522C198.252 67.9392 201.838 64.0799 206.311 64.0323C210.784 63.9847 214.451 67.7667 214.501 72.4797Z" fill="url(#paint0_linear_621_1012)"/>
<path d="M175.304 131.803C175.248 131.775 175.203 131.742 175.159 131.698C167.916 124.501 153.09 106.071 151.216 89.3667C149.024 69.8252 156.26 55.8875 160.89 49.7116C161.222 49.268 160.851 48.623 160.3 48.6876C133.892 51.7858 120.932 50.7397 117.328 49.7301C117.119 49.6715 116.954 49.4869 117.053 49.2936C118.545 46.3763 144.241 39.501 146.732 33.6184C146.839 33.3649 147.074 33.1704 147.348 33.1557C157.315 32.6249 160.2 31.8344 161.771 31.131C162.314 30.8883 162.214 30.0055 161.631 29.891C156.888 28.9593 157.467 30.4999 153.617 24.9059C148.869 18.0098 143.105 17.2404 142.417 15.9973C142.388 15.9447 142.361 15.8917 142.325 15.8438L131.115 0.989134C130.756 0.513778 131.2 -0.147636 131.769 0.0293646C159.931 8.79584 214.089 25.7666 219.048 27.7663C225.372 30.316 253.384 36.0224 257.135 71.7236C257.146 71.8351 257.188 71.9452 257.256 72.0346L279.473 101.421L277.882 103.669C275.235 107.415 273.81 109.165 272.272 110.309L223.637 94.2287C223.079 94.0444 223.06 93.2227 223.593 92.9762C229.716 90.1446 238.68 82.2478 235.7 68.016C232.431 52.4064 216.086 47.3463 208.322 46.7674C202.192 46.6312 188.197 48.5245 181.25 57.1874C174.304 65.8502 172.651 72.0682 172.004 75.1669C171.357 78.2657 171.19 85.0764 172.363 89.3667C173.843 94.781 174.015 95.4961 176.04 99.3781C177.021 101.258 186.733 113.51 191.466 119.401C194.778 123.754 201.3 132.807 202.761 136.585C202.911 136.972 202.592 137.338 202.179 137.293C194.884 136.508 180.562 134.457 175.304 131.803Z" fill="url(#paint1_linear_621_1012)"/>
</g>
<defs>
<filter id="filter0_d_621_1012" x="38.1984" y="168.988" width="322.355" height="50.8613" filterUnits="userSpaceOnUse" color-interpolation-filters="sRGB">
<feFlood flood-opacity="0" result="BackgroundImageFix"/>
<feColorMatrix in="SourceAlpha" type="matrix" values="0 0 0 0 0 0 0 0 0 0 0 0 0 0 0 0 0 0 127 0" result="hardAlpha"/>
<feOffset dy="4"/>
<feGaussianBlur stdDeviation="2"/>
<feComposite in2="hardAlpha" operator="out"/>
<feColorMatrix type="matrix" values="0 0 0 0 0 0 0 0 0 0 0 0 0 0 0 0 0 0 0.25 0"/>
<feBlend mode="normal" in2="BackgroundImageFix" result="effect1_dropShadow_621_1012"/>
<feBlend mode="normal" in="SourceGraphic" in2="effect1_dropShadow_621_1012" result="shape"/>
</filter>
<filter id="filter1_n_621_1012" x="117.024" y="0" width="162.449" height="137.297" filterUnits="userSpaceOnUse" color-interpolation-filters="sRGB">
<feFlood flood-opacity="0" result="BackgroundImageFix"/>
<feBlend mode="normal" in="SourceGraphic" in2="BackgroundImageFix" result="shape"/>
<feTurbulence type="fractalNoise" baseFrequency="9.7888889312744141 9.7888889312744141" stitchTiles="stitch" numOctaves="3" result="noise" seed="5563" />
<feColorMatrix in="noise" type="luminanceToAlpha" result="alphaNoise" />
<feComponentTransfer in="alphaNoise" result="coloredNoise1">
<feFuncA type="discrete" tableValues="1 1 1 1 1 1 1 1 1 1 1 1 1 1 1 1 1 1 1 1 1 1 1 1 1 1 1 1 1 1 1 1 1 1 1 1 1 1 1 1 1 1 1 1 1 1 1 1 1 1 1 0 0 0 0 0 0 0 0 0 0 0 0 0 0 0 0 0 0 0 0 0 0 0 0 0 0 0 0 0 0 0 0 0 0 0 0 0 0 0 0 0 0 0 0 0 0 0 0 0 "/>
</feComponentTransfer>
<feComposite operator="in" in2="shape" in="coloredNoise1" result="noise1Clipped" />
<feFlood flood-color="rgba(0, 0, 0, 0.25)" result="color1Flood" />
<feComposite operator="in" in2="noise1Clipped" in="color1Flood" result="color1" />
<feMerge result="effect1_noise_621_1012">
<feMergeNode in="shape" />
<feMergeNode in="color1" />
</feMerge>
</filter>
<linearGradient id="paint0_linear_621_1012" x1="109.254" y1="-3.73444" x2="262.285" y2="144.597" gradientUnits="userSpaceOnUse">
<stop stop-color="#6EADC8"/>
<stop offset="1" stop-color="#2F4B93"/>
</linearGradient>
<linearGradient id="paint1_linear_621_1012" x1="111.265" y1="-6.35405" x2="264.295" y2="141.977" gradientUnits="userSpaceOnUse">
<stop stop-color="#6EADC8"/>
<stop offset="1" stop-color="#2F4B93"/>
</linearGradient>
</defs>
</svg>
