<svg width="202" height="32" viewBox="0 0 202 32" fill="none" xmlns="http://www.w3.org/2000/svg">
<path d="M9.783 3.71218C9.783 3.17697 9.77615 2.70694 9.76243 2.30895C9.7487 1.90754 9.73155 1.56102 9.70411 1.2694C9.6801 0.977774 9.64923 0.730751 9.61836 0.535191C9.58749 0.339631 9.55318 0.174948 9.51545 0.0445747V0.00683594H11.1997V0.0445747C11.162 0.178379 11.1242 0.339631 11.0899 0.535191C11.0556 0.730751 11.0282 0.974343 11.0042 1.2694C10.9836 1.56102 10.963 1.90754 10.9459 2.30895C10.9287 2.71037 10.9218 3.17697 10.9218 3.71218V8.81733C10.9218 9.71965 10.7915 10.4882 10.5342 11.1229C10.277 11.761 9.91678 12.2825 9.45713 12.6874C8.99748 13.0922 8.44522 13.3907 7.80376 13.576C7.16231 13.7612 6.45912 13.8539 5.69417 13.8539C4.93266 13.8539 4.22261 13.7647 3.56401 13.5897C2.90541 13.4147 2.33255 13.1265 1.84203 12.7354C1.35494 12.3408 0.970752 11.8296 0.692904 11.2052C0.415056 10.5774 0.277852 9.81228 0.277852 8.91339V3.71218C0.277852 3.17697 0.270988 2.70694 0.257267 2.30895C0.243546 1.90754 0.226397 1.56102 0.198955 1.2694C0.174943 0.977774 0.144068 0.730751 0.109766 0.535191C0.0754633 0.339631 0.0377325 0.174948 0 0.0445747V0.00683594H2.27424V0.0445747C2.23651 0.178379 2.19878 0.339631 2.16448 0.535191C2.13017 0.730751 2.0993 0.974343 2.07529 1.2694C2.05128 1.56102 2.0307 1.90754 2.01697 2.30895C2.00325 2.71037 1.99639 3.17697 1.99639 3.71218V9.01632C1.99639 9.76768 2.10959 10.3852 2.33255 10.8759C2.55552 11.363 2.85052 11.7507 3.21755 12.0389C3.58459 12.3271 3.99964 12.5261 4.46615 12.6393C4.93266 12.7525 5.40947 12.8109 5.89313 12.8109C6.37679 12.8109 6.8536 12.7525 7.32011 12.6393C7.78662 12.5261 8.20167 12.3271 8.56185 12.0389C8.92545 11.7507 9.21701 11.363 9.43998 10.8759C9.66294 10.3887 9.77614 9.76768 9.77614 9.01632V3.71218H9.783Z" fill="white"/>
<path d="M13.5562 1.17334L22.4507 10.6426V4.55962C22.4507 4.069 22.4439 3.64357 22.4336 3.27647C22.4233 2.90936 22.4062 2.59372 22.3821 2.32611C22.3581 2.05851 22.3307 1.8355 22.2998 1.65709C22.2689 1.47869 22.2346 1.32773 22.2003 1.20765V1.17334H23.7371V1.20765C23.7028 1.32773 23.6719 1.47869 23.641 1.65709C23.6136 1.8355 23.5862 2.05851 23.5621 2.32611C23.5381 2.59372 23.521 2.90936 23.5107 3.27647C23.5004 3.64357 23.4935 4.069 23.4935 4.55962V13.7338H23.1917L14.2971 4.27485V10.1828C14.2971 10.6734 14.304 11.0989 14.3143 11.466C14.3245 11.8331 14.3417 12.1487 14.3657 12.4129C14.3897 12.6771 14.4137 12.9001 14.4446 13.0785C14.472 13.2569 14.5063 13.4078 14.5406 13.5279V13.5622H13.0039V13.5279C13.0382 13.4078 13.0725 13.2569 13.1034 13.0785C13.1343 12.9001 13.1617 12.6771 13.1857 12.4129C13.2097 12.1487 13.2269 11.8331 13.2372 11.466C13.2475 11.0989 13.2543 10.6734 13.2543 10.1828V4.55962C13.2543 4.069 13.2475 3.64357 13.2372 3.27647C13.2269 2.90936 13.2097 2.59372 13.1857 2.32611C13.1617 2.05851 13.1343 1.8355 13.1034 1.65709C13.0725 1.47869 13.0382 1.32773 13.0039 1.20765V1.17334H13.5562Z" fill="white"/>
<path d="M25.8633 13.5279C25.8976 13.4078 25.9285 13.2569 25.9593 13.0785C25.9868 12.9001 26.0142 12.6771 26.0382 12.4129C26.0622 12.1487 26.0794 11.8331 26.0897 11.466C26.1 11.0989 26.1068 10.6734 26.1068 10.1828V4.55962C26.1068 4.069 26.1 3.64357 26.0897 3.27647C26.0794 2.90936 26.0622 2.59372 26.0382 2.32611C26.0142 2.05851 25.9902 1.8355 25.9593 1.65709C25.9319 1.47869 25.8976 1.32773 25.8633 1.20765V1.17334H27.9283V1.20765C27.894 1.32773 27.8597 1.47869 27.8288 1.65709C27.7979 1.8355 27.7705 2.05851 27.7499 2.32611C27.7293 2.59372 27.7122 2.90936 27.6985 3.27647C27.6847 3.64357 27.6779 4.069 27.6779 4.55962V10.1828C27.6779 10.6734 27.6847 11.0989 27.6985 11.466C27.7122 11.8331 27.7293 12.1487 27.7499 12.4129C27.7705 12.6771 27.7945 12.9001 27.8288 13.0785C27.8597 13.2569 27.894 13.4078 27.9283 13.5279V13.5622H25.8633V13.5279Z" fill="white"/>
<path d="M31.2521 1.17335V1.20766C31.2418 1.23511 31.2315 1.27971 31.2247 1.33803C31.2178 1.39636 31.2144 1.44782 31.2144 1.49242C31.2144 1.67083 31.2384 1.86982 31.2864 2.08254C31.3344 2.29868 31.4305 2.56629 31.5677 2.88879L35.3924 11.5175L39.0902 2.95741C39.1759 2.7447 39.2685 2.51139 39.368 2.25751C39.4675 2.00362 39.5155 1.74631 39.5155 1.48899C39.5155 1.42038 39.5087 1.36205 39.4984 1.31059C39.4881 1.26256 39.4744 1.22482 39.4641 1.20423V1.16992H41.2341V1.20423C41.1243 1.31402 40.9905 1.50958 40.8362 1.79091C40.6818 2.07224 40.5103 2.42219 40.3251 2.83733L35.3752 13.8264H34.6892L30.0001 3.26276C29.8903 3.01573 29.7771 2.77557 29.6605 2.5457C29.5439 2.31584 29.4307 2.10655 29.3277 1.91785C29.2248 1.72915 29.1322 1.57477 29.0499 1.44782C28.971 1.32088 28.9161 1.24197 28.8853 1.20766V1.17335H31.2521Z" fill="white"/>
<path d="M44.4589 1.16649C45.1689 1.15963 45.8207 1.15277 46.4141 1.14591C47.0075 1.13562 47.5152 1.12532 47.9337 1.10817C48.3556 1.09101 48.6403 1.067 48.7878 1.03955L48.3659 2.18889C48.1772 2.13743 47.9543 2.0894 47.7004 2.05166C47.4809 2.01735 47.2168 1.98304 46.9012 1.95216C46.5856 1.92129 46.2254 1.90413 45.8173 1.90413C45.68 1.90413 45.512 1.90756 45.3199 1.91786C45.1278 1.92815 44.9425 1.93501 44.7642 1.94873C44.5584 1.95903 44.3457 1.97275 44.133 1.98304V6.7005C44.7264 6.69364 45.2616 6.67648 45.7384 6.64903C46.2152 6.62159 46.6234 6.59071 46.9561 6.56326C47.3471 6.52895 47.6936 6.48778 47.992 6.44318L47.7245 7.69545C47.3266 7.64399 46.9218 7.59596 46.5067 7.54793C46.15 7.50675 45.7624 7.47245 45.3405 7.44157C44.9185 7.41069 44.5172 7.39354 44.1296 7.39354V12.8109C44.8088 12.8109 45.4331 12.7834 46.0025 12.7251C46.5719 12.6668 47.0693 12.6016 47.4981 12.5261C47.992 12.4472 48.4448 12.3512 48.853 12.2414L48.6026 13.6412C48.534 13.6343 48.4311 13.6309 48.2904 13.624C48.1532 13.6171 47.9989 13.6137 47.8274 13.6069C47.6559 13.6 47.4775 13.5966 47.2922 13.5931C47.1036 13.5897 46.9286 13.5863 46.7606 13.5828C46.5925 13.5794 46.445 13.576 46.3146 13.5725C46.1843 13.5691 46.0917 13.5691 46.0334 13.5691H42.3013V13.5348C42.3356 13.4147 42.3699 13.2638 42.4008 13.0854C42.4316 12.907 42.4591 12.6839 42.4831 12.4198C42.5071 12.1556 42.5242 11.84 42.5345 11.4728C42.5448 11.1057 42.5517 10.6803 42.5517 10.1897V4.55963C42.5517 4.06902 42.5448 3.64359 42.5345 3.27648C42.5242 2.90938 42.5071 2.59374 42.4831 2.32613C42.4591 2.05852 42.4316 1.83551 42.4008 1.65711C42.3699 1.4787 42.3356 1.32775 42.3013 1.20766V1.17336C43.0319 1.17336 43.7488 1.17336 44.4589 1.16649Z" fill="white"/>
<path d="M52.1701 10.1862C52.1701 10.6768 52.1769 11.1022 52.1907 11.4693C52.2044 11.8364 52.2215 12.1521 52.2421 12.4162C52.2627 12.6804 52.2867 12.9034 52.321 13.0818C52.3519 13.2602 52.3862 13.4112 52.4205 13.5313V13.5656H50.3486V13.5313C50.3829 13.4112 50.4172 13.2602 50.4481 13.0818C50.479 12.9034 50.5064 12.6804 50.527 12.4162C50.5476 12.1521 50.5647 11.8364 50.5785 11.4762C50.5922 11.1125 50.599 10.6836 50.599 10.1896V4.55953C50.599 4.06891 50.5922 3.64348 50.5785 3.27638C50.5647 2.90928 50.5476 2.59707 50.527 2.32946C50.5064 2.06528 50.4824 1.84227 50.4481 1.66044C50.4172 1.4786 50.3829 1.32764 50.3486 1.20756V1.17325L50.7122 1.20756C50.822 1.21785 50.9455 1.22471 51.0793 1.22815C51.2131 1.23158 51.3537 1.23158 51.4978 1.23158C51.7207 1.23158 52.026 1.20413 52.4102 1.14924C52.7944 1.09434 53.2815 1.06689 53.8749 1.06689C54.4272 1.06689 54.9383 1.14237 55.4082 1.2899C55.8782 1.44086 56.2864 1.65701 56.6294 1.9452C56.9758 2.23339 57.2434 2.58677 57.4355 3.00191C57.6276 3.42048 57.7236 3.89394 57.7236 4.42229C57.7236 4.83743 57.6687 5.22169 57.5624 5.57507C57.4561 5.92845 57.3051 6.25095 57.113 6.53914C56.9209 6.82734 56.6877 7.08122 56.4167 7.30423C56.1457 7.52724 55.8439 7.7125 55.5111 7.86003L58.5434 12.1178C58.6944 12.3305 58.8316 12.5157 58.9619 12.6701C59.0923 12.8245 59.2158 12.9583 59.3324 13.0715C59.449 13.1848 59.5657 13.2774 59.672 13.3494C59.7818 13.4215 59.895 13.4764 60.0082 13.5175V13.5519H57.5109C57.4938 13.4421 57.4389 13.298 57.3429 13.1161C57.2468 12.9343 57.137 12.7559 57.0101 12.5775L53.9538 8.26831C53.82 8.2786 53.6897 8.28889 53.5559 8.29918C53.4221 8.30948 53.2883 8.31291 53.1511 8.31291C52.9899 8.31291 52.8287 8.30605 52.664 8.29575C52.4994 8.28546 52.3347 8.26487 52.1667 8.234V10.1862H52.1701ZM52.1701 7.56841C52.3244 7.60271 52.4822 7.62673 52.6435 7.64046C52.8047 7.65418 52.959 7.66104 53.11 7.66104C53.5422 7.66104 53.9366 7.59585 54.2934 7.46548C54.6501 7.33511 54.9554 7.13955 55.2058 6.87537C55.4562 6.61119 55.6518 6.28183 55.789 5.88728C55.9262 5.49273 55.9948 5.02956 55.9948 4.5012C55.9948 4.06891 55.9468 3.67779 55.8473 3.32784C55.7478 2.97789 55.6037 2.67941 55.4116 2.43238C55.2196 2.18879 54.976 1.99666 54.681 1.86286C54.386 1.72905 54.0464 1.66044 53.6519 1.66044C53.254 1.66044 52.9385 1.68102 52.7018 1.72219C52.4651 1.76336 52.2867 1.80453 52.1667 1.85257V7.56841H52.1701Z" fill="white"/>
<path d="M65.9626 3.14592H65.7739C65.7293 3.01211 65.6539 2.86459 65.5544 2.69647C65.4549 2.52836 65.3211 2.37397 65.1565 2.22644C64.9918 2.07892 64.7929 1.95884 64.5596 1.85934C64.3264 1.75984 64.0519 1.71181 63.7364 1.71181C63.4551 1.71181 63.2047 1.75641 62.9851 1.84219C62.7656 1.92796 62.5838 2.04804 62.4363 2.20586C62.2888 2.36025 62.1791 2.54551 62.1036 2.75823C62.0281 2.97094 61.9904 3.20767 61.9904 3.46499C61.9904 3.88013 62.107 4.27468 62.3403 4.65207C62.5735 5.02947 62.8651 5.40344 63.2184 5.77054C63.5683 6.13764 63.949 6.50818 64.3572 6.87528C64.7654 7.24239 65.1462 7.62665 65.4961 8.02463C65.846 8.42261 66.141 8.83774 66.3742 9.27347C66.6075 9.70919 66.7241 10.1758 66.7241 10.6767C66.7241 11.0507 66.6589 11.4281 66.5286 11.8055C66.3982 12.1828 66.1993 12.5225 65.9283 12.821C65.6573 13.1195 65.3108 13.3631 64.8821 13.5518C64.4567 13.7405 63.949 13.8331 63.3625 13.8331C63.0332 13.8331 62.721 13.8022 62.426 13.7439C62.131 13.6821 61.8566 13.6101 61.6062 13.5209C61.3558 13.4317 61.1328 13.3356 60.9339 13.2327C60.7349 13.1298 60.5737 13.0337 60.4468 12.9479L60.6457 11.0404H60.8618C60.9236 11.3114 61.0299 11.5687 61.174 11.8123C61.3181 12.0559 61.4964 12.2721 61.7057 12.4608C61.9149 12.6494 62.155 12.797 62.426 12.9102C62.697 13.0234 62.992 13.0783 63.3145 13.0783C63.6094 13.0783 63.8701 13.0337 64.1034 12.9445C64.3367 12.8553 64.5356 12.7318 64.7037 12.574C64.8718 12.4161 64.9987 12.2275 65.0879 12.0079C65.1771 11.7883 65.2217 11.5516 65.2217 11.2908C65.2217 10.9271 65.1565 10.5909 65.0227 10.2856C64.8889 9.9768 64.7174 9.68517 64.5013 9.40727C64.2852 9.12937 64.0417 8.86176 63.7672 8.60444C63.4928 8.3437 63.2115 8.08638 62.9268 7.8222C62.6387 7.56146 62.3574 7.29042 62.083 7.01595C61.8086 6.73805 61.565 6.44299 61.3489 6.13078C61.1328 5.81857 60.9579 5.47892 60.8275 5.11867C60.6938 4.75843 60.6286 4.36388 60.6286 3.93159C60.6286 3.47528 60.7178 3.06701 60.8927 2.6999C61.0676 2.3328 61.3009 2.02059 61.5925 1.76327C61.884 1.50253 62.2134 1.30697 62.5804 1.1663C62.9474 1.02907 63.3282 0.960449 63.7192 0.960449C64.0073 0.960449 64.2715 0.984465 64.515 1.02907C64.7551 1.07367 64.9747 1.12856 65.1668 1.19375C65.3589 1.2555 65.527 1.32069 65.671 1.38245C65.8151 1.4442 65.9317 1.4991 66.0243 1.53684L65.9626 3.14592Z" fill="white"/>
<path d="M68.4497 13.5279C68.484 13.4078 68.5149 13.2569 68.5457 13.0785C68.5732 12.9001 68.6006 12.6771 68.6246 12.4129C68.6486 12.1487 68.6658 11.8331 68.6761 11.466C68.6864 11.0989 68.6932 10.6734 68.6932 10.1828V4.55962C68.6932 4.069 68.6864 3.64357 68.6761 3.27647C68.6658 2.90936 68.6486 2.59372 68.6246 2.32611C68.6006 2.05851 68.5766 1.8355 68.5457 1.65709C68.5183 1.47869 68.484 1.32773 68.4497 1.20765V1.17334H70.5147V1.20765C70.4804 1.32773 70.4461 1.47869 70.4152 1.65709C70.3843 1.8355 70.3569 2.05851 70.3363 2.32611C70.3157 2.59372 70.2986 2.90936 70.2849 3.27647C70.2712 3.64357 70.2643 4.069 70.2643 4.55962V10.1828C70.2643 10.6734 70.2712 11.0989 70.2849 11.466C70.2986 11.8331 70.3157 12.1487 70.3363 12.4129C70.3569 12.6771 70.3809 12.9001 70.4152 13.0785C70.4461 13.2569 70.4804 13.4078 70.5147 13.5279V13.5622H68.4497V13.5279Z" fill="white"/>
<path d="M76.3193 1.93525C75.6401 1.93525 75.0261 1.96613 74.4807 2.02446C73.9353 2.08621 73.4619 2.1514 73.064 2.22002C72.6043 2.30579 72.1927 2.40185 71.8291 2.50478L72.0795 1.10498C72.1481 1.11184 72.251 1.11527 72.3917 1.12213C72.5289 1.129 72.6832 1.13243 72.8547 1.13929C73.0228 1.14615 73.2046 1.14958 73.3899 1.15301C73.5785 1.15644 73.7535 1.15987 73.9215 1.1633C74.0896 1.16674 74.2371 1.17017 74.3675 1.1736C74.4978 1.17703 74.5904 1.17703 74.6487 1.17703H79.5814C79.6397 1.17703 79.7323 1.17703 79.8627 1.1736C79.993 1.17017 80.1405 1.16674 80.3086 1.1633C80.4767 1.15987 80.6516 1.15644 80.8403 1.15301C81.029 1.14958 81.2073 1.14615 81.3754 1.13929C81.5435 1.13243 81.6979 1.129 81.8385 1.12213C81.9757 1.11527 82.082 1.11184 82.1506 1.10498L82.401 2.50478C82.034 2.40185 81.619 2.30579 81.1559 2.22002C80.758 2.1514 80.288 2.08621 79.7392 2.02446C79.1938 1.9627 78.5798 1.93525 77.9006 1.93525V10.1865C77.9006 10.6771 77.9074 11.1026 77.9212 11.4697C77.9349 11.8368 77.952 12.1524 77.9726 12.4166C77.9932 12.6808 78.0172 12.9038 78.0515 13.0822C78.0824 13.2606 78.1167 13.4115 78.151 13.5316V13.5659H76.086V13.5316C76.1203 13.4115 76.1512 13.2606 76.1821 13.0822C76.2095 12.9038 76.2369 12.6808 76.2609 12.4166C76.285 12.1524 76.3021 11.8368 76.3124 11.4697C76.3227 11.1026 76.3295 10.6771 76.3295 10.1865V1.93525H76.3193Z" fill="white"/>
<path d="M89.4293 7.61997V10.1863C89.4293 10.6769 89.4362 11.1023 89.4464 11.4694C89.4567 11.8365 89.4739 12.1522 89.4979 12.4163C89.5219 12.6805 89.5494 12.9035 89.5802 13.0819C89.6111 13.2603 89.6454 13.4113 89.6797 13.5314V13.5657H87.6079V13.5314C87.6422 13.4113 87.6765 13.2603 87.7073 13.0819C87.7382 12.9035 87.7656 12.6805 87.7862 12.4163C87.8068 12.1522 87.824 11.8365 87.8377 11.4694C87.8514 11.1023 87.8583 10.6769 87.8583 10.1863V7.79495L83.9958 2.53884C83.862 2.36044 83.7317 2.19575 83.6013 2.0448C83.471 1.89384 83.351 1.76346 83.2343 1.65024C83.1177 1.53703 83.0148 1.44439 82.9222 1.36891C82.8296 1.29343 82.7575 1.23854 82.7061 1.20423V1.16992H85.3233C85.3233 1.30373 85.3782 1.51987 85.4914 1.82179C85.6046 2.12371 85.807 2.48052 86.102 2.88879L88.9353 6.76911L91.707 2.71725C91.8065 2.57315 91.9025 2.42562 92.002 2.2781C92.1014 2.12714 92.1906 1.98304 92.2695 1.8458C92.3484 1.70857 92.4136 1.58163 92.465 1.46498C92.5131 1.34833 92.5371 1.25226 92.5371 1.16992H94.2213V1.20423C94.0944 1.31402 93.9263 1.47527 93.7102 1.69141C93.4976 1.90756 93.2677 2.19232 93.0208 2.55257L89.4293 7.61997Z" fill="white"/>
<path d="M106.594 0.967773C107.555 0.967773 108.443 1.12559 109.26 1.4378C110.076 1.75344 110.779 2.1926 111.373 2.75869C111.966 3.32479 112.429 4.00753 112.762 4.80006C113.095 5.59603 113.263 6.47433 113.263 7.43498C113.263 7.98049 113.201 8.51913 113.074 9.05092C112.947 9.57928 112.762 10.0836 112.518 10.5536C112.275 11.0271 111.973 11.4628 111.616 11.8608C111.259 12.2622 110.851 12.6053 110.395 12.8969C109.939 13.1886 109.431 13.415 108.879 13.5797C108.327 13.7444 107.73 13.8267 107.092 13.8267C106.131 13.8267 105.243 13.6723 104.426 13.3635C103.61 13.0548 102.907 12.619 102.313 12.0564C101.72 11.4937 101.257 10.8144 100.924 10.0219C100.591 9.22933 100.423 8.35102 100.423 7.38351C100.423 6.83801 100.485 6.29936 100.612 5.76757C100.739 5.23922 100.924 4.73488 101.168 4.25455C101.411 3.77766 101.713 3.33851 102.066 2.9371C102.42 2.53568 102.828 2.18916 103.284 1.89754C103.74 1.60248 104.248 1.37605 104.804 1.21136C105.359 1.05011 105.956 0.967773 106.594 0.967773ZM107.088 13.0548C107.726 13.0548 108.313 12.9381 108.841 12.7082C109.369 12.4784 109.826 12.1456 110.21 11.7064C110.594 11.2673 110.889 10.7355 111.105 10.1042C111.318 9.47292 111.424 8.7593 111.424 7.95647C111.424 7.07131 111.321 6.24789 111.119 5.48967C110.913 4.73145 110.611 4.07615 110.206 3.52035C109.802 2.96454 109.301 2.52882 108.7 2.21661C108.1 1.9044 107.397 1.74658 106.598 1.74658C105.96 1.74658 105.373 1.8598 104.845 2.08624C104.317 2.31268 103.86 2.64204 103.476 3.07433C103.092 3.50662 102.794 4.03498 102.581 4.66283C102.368 5.29068 102.262 6.0043 102.262 6.8037C102.262 7.68543 102.361 8.50541 102.564 9.2705C102.766 10.0322 103.068 10.6943 103.469 11.2535C103.871 11.8128 104.375 12.2519 104.982 12.571C105.586 12.8935 106.286 13.0548 107.088 13.0548Z" fill="white"/>
<path d="M116.587 10.1863C116.587 10.6769 116.593 11.1023 116.607 11.4694C116.621 11.8365 116.638 12.1522 116.659 12.4164C116.679 12.6805 116.703 12.9036 116.738 13.082C116.768 13.2604 116.803 13.4113 116.837 13.5314V13.5657H114.765V13.5314C114.799 13.4113 114.834 13.2604 114.865 13.082C114.895 12.9036 114.923 12.6805 114.947 12.4164C114.971 12.1522 114.988 11.8365 114.998 11.4694C115.009 11.1023 115.016 10.6769 115.016 10.1863V4.55966C115.016 4.06904 115.009 3.64361 114.998 3.27651C114.988 2.9094 114.971 2.59376 114.947 2.32616C114.923 2.05855 114.895 1.83554 114.865 1.65713C114.834 1.47873 114.799 1.32777 114.765 1.20769V1.17338C115.242 1.17338 115.726 1.17338 116.216 1.16995C116.707 1.16652 117.18 1.16309 117.64 1.15966C118.099 1.15623 118.538 1.14936 118.953 1.1425C119.369 1.13221 119.742 1.12535 120.075 1.11506C120.408 1.10476 120.693 1.09447 120.922 1.08075C121.152 1.06702 121.317 1.04987 121.416 1.03271L120.994 2.18206C120.806 2.1306 120.583 2.08256 120.329 2.04482C120.109 2.01052 119.845 1.97621 119.53 1.94533C119.214 1.91445 118.854 1.8973 118.446 1.8973C118.309 1.8973 118.134 1.90073 117.928 1.91102C117.722 1.92131 117.516 1.92817 117.314 1.9419C117.084 1.95219 116.84 1.96591 116.587 1.97621V6.34028C117.18 6.33342 117.725 6.31627 118.219 6.28882C118.713 6.26137 119.142 6.23049 119.499 6.20305C119.914 6.16874 120.288 6.12757 120.621 6.08297L120.36 7.33524C119.928 7.28377 119.492 7.23574 119.046 7.18771C118.665 7.14654 118.257 7.11223 117.818 7.08135C117.379 7.05047 116.967 7.03332 116.583 7.03332V10.1863H116.587Z" fill="white"/>
<path d="M128.253 13.5245C128.322 13.425 128.4 13.2741 128.49 13.0751C128.579 12.8761 128.647 12.6256 128.699 12.3237C128.767 11.8811 128.846 11.3871 128.932 10.8347C129.018 10.2823 129.107 9.70596 129.196 9.09869C129.289 8.49485 129.378 7.87387 129.471 7.23915C129.563 6.60444 129.649 5.98002 129.735 5.36589C129.821 4.75177 129.903 4.15822 129.982 3.5887C130.061 3.01917 130.133 2.49768 130.194 2.02422C130.256 1.55076 130.308 1.13905 130.349 0.789102C130.39 0.439152 130.421 0.174975 130.438 0H131.639L137.583 11.1195L143.483 0H144.382L145.932 11.2327C145.977 11.5861 146.025 11.888 146.073 12.1419C146.124 12.3923 146.172 12.6085 146.224 12.7903C146.275 12.9687 146.323 13.1197 146.371 13.2363C146.419 13.353 146.464 13.449 146.509 13.5245V13.5623H144.128V13.5245C144.159 13.4559 144.19 13.3427 144.217 13.1849C144.245 13.027 144.258 12.8383 144.258 12.6188C144.258 12.5364 144.255 12.4541 144.248 12.3683C144.241 12.2825 144.231 12.1899 144.221 12.0904L143.02 3.0329L137.443 13.528L136.791 13.4525L131.175 2.94026C130.956 4.4327 130.764 5.81534 130.599 7.08133C130.531 7.62341 130.462 8.16549 130.39 8.70414C130.321 9.24279 130.26 9.74713 130.205 10.2137C130.15 10.6803 130.109 11.092 130.078 11.4488C130.047 11.8057 130.03 12.0698 130.03 12.2379C130.03 12.4507 130.037 12.6428 130.05 12.804C130.064 12.9687 130.074 13.106 130.088 13.2192C130.109 13.353 130.126 13.4696 130.146 13.5691H128.256V13.5245H128.253Z" fill="white"/>
<path d="M157.299 13.5622V13.5279C157.309 13.5005 157.319 13.4559 157.326 13.3975C157.333 13.3392 157.337 13.2877 157.337 13.2431C157.337 13.0647 157.313 12.8657 157.265 12.653C157.217 12.4369 157.12 12.1693 156.983 11.8468L155.937 9.49663C155.615 9.48633 155.186 9.47947 154.651 9.47947C154.116 9.47947 153.536 9.47947 152.915 9.47947C152.459 9.47947 152.02 9.47947 151.598 9.47947C151.176 9.47947 150.792 9.48633 150.452 9.49663L149.457 11.7782C149.372 11.9909 149.279 12.2242 149.18 12.4781C149.08 12.7319 149.032 12.9893 149.032 13.2466C149.032 13.3221 149.039 13.3838 149.049 13.4318C149.059 13.4799 149.073 13.5142 149.083 13.5313V13.5656H147.32V13.5313C147.423 13.4216 147.554 13.226 147.708 12.9481C147.862 12.6702 148.034 12.3202 148.219 11.8982L153.169 0.919434H153.858L158.547 11.4762C158.657 11.7233 158.77 11.9634 158.887 12.1967C159.004 12.43 159.117 12.6393 159.22 12.8246C159.323 13.0098 159.415 13.1642 159.498 13.2912C159.577 13.4181 159.631 13.497 159.662 13.5348V13.5691H157.299V13.5622ZM151.701 8.73497C152.033 8.73497 152.376 8.73497 152.73 8.73154C153.08 8.72811 153.426 8.72468 153.762 8.72125C154.098 8.71782 154.424 8.71439 154.733 8.71096C155.045 8.70753 155.326 8.7041 155.58 8.69723L153.152 3.21126L150.768 8.73497H151.701Z" fill="white"/>
<path d="M160.497 13.5279C160.531 13.4079 160.566 13.2569 160.597 13.0785C160.627 12.9001 160.655 12.6771 160.679 12.4129C160.703 12.1487 160.72 11.8331 160.73 11.466C160.741 11.0989 160.747 10.6734 160.747 10.1828V4.55962C160.747 4.069 160.741 3.64357 160.73 3.27647C160.72 2.90936 160.703 2.59372 160.679 2.32611C160.655 2.05851 160.627 1.8355 160.597 1.65709C160.566 1.47869 160.531 1.32773 160.497 1.20765V1.17334H162.569V1.20765C162.535 1.32773 162.5 1.47869 162.469 1.65709C162.439 1.8355 162.411 2.05851 162.391 2.32611C162.37 2.59372 162.353 2.90936 162.339 3.27647C162.325 3.64357 162.319 4.069 162.319 4.55962V6.48777L167.361 2.36729C167.924 1.90755 168.208 1.50957 168.208 1.17677H170.637V1.21108C170.297 1.29342 169.954 1.44438 169.604 1.67425C169.254 1.90069 168.887 2.17859 168.493 2.50795L164.037 6.24075L169.402 12.1316C169.625 12.3614 169.817 12.5536 169.975 12.7045C170.133 12.8589 170.273 12.9824 170.393 13.0853C170.513 13.1848 170.627 13.2706 170.726 13.3358C170.825 13.401 170.932 13.4662 171.042 13.5314V13.5657H168.51C168.486 13.5142 168.448 13.449 168.393 13.3667C168.339 13.2878 168.277 13.202 168.205 13.1162C168.133 13.0305 168.054 12.9413 167.972 12.8486C167.889 12.756 167.81 12.6702 167.735 12.5879L162.319 6.64559V10.1863C162.319 10.6769 162.325 11.1023 162.339 11.4694C162.353 11.8365 162.37 12.1522 162.391 12.4163C162.411 12.6805 162.435 12.9035 162.469 13.0819C162.5 13.2603 162.535 13.4113 162.569 13.5314V13.5657H160.497V13.5279Z" fill="white"/>
<path d="M181.482 13.5622V13.5279C181.492 13.5005 181.503 13.4559 181.509 13.3975C181.516 13.3392 181.52 13.2877 181.52 13.2431C181.52 13.0647 181.496 12.8657 181.448 12.653C181.4 12.4369 181.304 12.1693 181.166 11.8468L180.12 9.49663C179.798 9.48633 179.369 9.47947 178.834 9.47947C178.299 9.47947 177.719 9.47947 177.098 9.47947C176.642 9.47947 176.203 9.47947 175.781 9.47947C175.359 9.47947 174.975 9.48633 174.635 9.49663L173.64 11.7782C173.555 11.9909 173.462 12.2242 173.363 12.4781C173.263 12.7319 173.215 12.9893 173.215 13.2466C173.215 13.3221 173.222 13.3838 173.232 13.4318C173.243 13.4799 173.256 13.5142 173.267 13.5313V13.5656H171.503V13.5313C171.606 13.4216 171.737 13.226 171.891 12.9481C172.045 12.6702 172.217 12.3202 172.402 11.8982L177.352 0.919434H178.041L182.731 11.4762C182.84 11.7233 182.954 11.9634 183.07 12.1967C183.187 12.43 183.3 12.6393 183.403 12.8246C183.506 13.0098 183.598 13.1642 183.681 13.2912C183.76 13.4181 183.814 13.497 183.845 13.5348V13.5691H181.482V13.5622ZM175.884 8.73497C176.217 8.73497 176.56 8.73497 176.913 8.73154C177.263 8.72811 177.609 8.72468 177.945 8.72125C178.282 8.71782 178.607 8.71439 178.916 8.71096C179.228 8.70753 179.51 8.7041 179.763 8.69723L177.335 3.21126L174.951 8.73497H175.884Z" fill="white"/>
<path d="M187.286 1.93525C186.607 1.93525 185.993 1.96613 185.447 2.02446C184.899 2.08621 184.429 2.1514 184.031 2.22002C183.571 2.30579 183.16 2.40185 182.796 2.50478L183.046 1.10498C183.115 1.11184 183.218 1.11527 183.358 1.12213C183.496 1.129 183.65 1.13243 183.822 1.13929C183.99 1.14615 184.171 1.14958 184.357 1.15301C184.545 1.15644 184.72 1.15987 184.888 1.1633C185.056 1.16674 185.204 1.17017 185.334 1.1736C185.465 1.17703 185.557 1.17703 185.616 1.17703H190.548C190.607 1.17703 190.699 1.17703 190.829 1.1736C190.96 1.17017 191.107 1.16674 191.275 1.1633C191.443 1.15987 191.618 1.15644 191.807 1.15301C191.996 1.14958 192.174 1.14615 192.342 1.13929C192.51 1.13243 192.665 1.129 192.805 1.12213C192.942 1.11527 193.049 1.11184 193.117 1.10498L193.368 2.50478C193.001 2.40185 192.586 2.30579 192.123 2.22002C191.725 2.1514 191.255 2.08621 190.706 2.02446C190.161 1.9627 189.547 1.93525 188.867 1.93525V10.1865C188.867 10.6771 188.874 11.1026 188.888 11.4697C188.902 11.8368 188.919 12.1524 188.939 12.4166C188.96 12.6808 188.984 12.9038 189.018 13.0822C189.049 13.2606 189.083 13.4115 189.118 13.5316V13.5659H187.053V13.5316C187.087 13.4115 187.118 13.2606 187.149 13.0822C187.176 12.9038 187.204 12.6808 187.228 12.4166C187.252 12.1524 187.269 11.8368 187.279 11.4697C187.289 11.1026 187.296 10.6771 187.296 10.1865V1.93525H187.286Z" fill="white"/>
<path d="M194.671 13.5279C194.706 13.4078 194.737 13.2569 194.767 13.0785C194.795 12.9001 194.822 12.6771 194.846 12.4129C194.87 12.1487 194.887 11.8331 194.898 11.466C194.908 11.0989 194.915 10.6734 194.915 10.1828V4.55962C194.915 4.069 194.908 3.64357 194.898 3.27647C194.887 2.90936 194.87 2.59372 194.846 2.32611C194.822 2.05851 194.798 1.8355 194.767 1.65709C194.74 1.47869 194.706 1.32773 194.671 1.20765V1.17334H196.736V1.20765C196.702 1.32773 196.668 1.47869 196.637 1.65709C196.606 1.8355 196.579 2.05851 196.558 2.32611C196.537 2.59372 196.52 2.90936 196.507 3.27647C196.493 3.64357 196.486 4.069 196.486 4.55962V10.1828C196.486 10.6734 196.493 11.0989 196.507 11.466C196.52 11.8331 196.537 12.1487 196.558 12.4129C196.579 12.6771 196.603 12.9001 196.637 13.0785C196.668 13.2569 196.702 13.4078 196.736 13.5279V13.5622H194.671V13.5279Z" fill="white"/>
<path d="M200.231 1.41014C200.979 1.41014 201.586 2.0174 201.586 2.76533C201.586 3.51327 200.979 4.12053 200.231 4.12053C199.484 4.12053 198.876 3.51327 198.876 2.76533C198.876 2.0174 199.484 1.41014 200.231 1.41014ZM200.231 1.02588C199.271 1.02588 198.492 1.80469 198.492 2.76533C198.492 3.72598 199.271 4.50479 200.231 4.50479C201.192 4.50479 201.97 3.72598 201.97 2.76533C201.974 1.80469 201.192 1.02588 200.231 1.02588Z" fill="white"/>
<path d="M200.537 3.57155L200.18 3.06378H199.981V3.57155H199.577V1.94531H200.331C200.451 1.94531 200.554 1.96933 200.65 2.01736C200.743 2.06539 200.818 2.13058 200.87 2.21635C200.921 2.30212 200.949 2.39819 200.949 2.50455C200.949 2.62119 200.918 2.72412 200.856 2.81332C200.794 2.90253 200.709 2.97114 200.602 3.01231L200.997 3.57155H200.537ZM199.981 2.69324H200.294C200.366 2.69324 200.42 2.67609 200.465 2.64178C200.51 2.60747 200.53 2.56287 200.53 2.50455C200.53 2.44622 200.51 2.40162 200.465 2.36731C200.42 2.333 200.362 2.31585 200.294 2.31585H199.981V2.69324Z" fill="white"/>
<path d="M8.78621 25.5541C8.5682 25.5486 8.29611 25.5459 7.96937 25.5459C7.64263 25.5405 7.28633 25.535 6.89937 25.5295C6.51855 25.5241 6.11821 25.5213 5.69891 25.5213C5.28519 25.5159 4.87928 25.5131 4.48173 25.5131C4.08418 25.5077 3.70614 25.5077 3.3465 25.5131C2.98742 25.5186 2.67408 25.5268 2.40756 25.5377V27.9677C2.40756 28.4313 2.41256 28.8377 2.42371 29.1868C2.43988 29.5304 2.45606 29.8276 2.47279 30.0786C2.49453 30.3295 2.51907 30.5395 2.54639 30.7086C2.57873 30.8776 2.61163 31.0194 2.64397 31.134V31.1667H0.684082V31.134C0.716421 31.0194 0.746536 30.8776 0.773858 30.7086C0.806197 30.5395 0.833516 30.3295 0.855261 30.0786C0.877007 29.8276 0.893728 29.5304 0.904321 29.1868C0.915473 28.8377 0.921051 28.4313 0.921051 27.9677V22.6414C0.921051 22.1777 0.915473 21.7741 0.904321 21.4305C0.893728 21.0814 0.877007 20.7814 0.855261 20.5305C0.833516 20.2741 0.806197 20.0614 0.773858 19.8923C0.746536 19.7232 0.716421 19.5814 0.684082 19.4668V19.4341H2.64397V19.4668C2.61163 19.5814 2.57873 19.7232 2.54639 19.8923C2.51907 20.0614 2.49453 20.2741 2.47279 20.5305C2.45606 20.7814 2.43988 21.0814 2.42371 21.4305C2.41256 21.7741 2.40756 22.1777 2.40756 22.6414V24.7359C2.69025 24.7468 3.01195 24.755 3.37103 24.7605C3.73067 24.7605 4.10593 24.7605 4.49846 24.7605C4.89044 24.755 5.28798 24.7495 5.69055 24.7441C6.09925 24.7386 6.49123 24.7331 6.86704 24.7277C7.24786 24.7168 7.60191 24.7059 7.92865 24.695C8.26097 24.6841 8.54645 24.6732 8.78621 24.6623V22.6414C8.78621 22.1777 8.77785 21.7741 8.76168 21.4305C8.75053 21.0814 8.73435 20.7814 8.71261 20.5305C8.69644 20.2741 8.67191 20.0614 8.63902 19.8923C8.61169 19.7232 8.58214 19.5814 8.54924 19.4668V19.4341H10.5097V19.4668C10.4768 19.5814 10.4444 19.7232 10.4115 19.8923C10.3842 20.0614 10.3597 20.2741 10.3379 20.5305C10.3162 20.7814 10.3 21.0814 10.2889 21.4305C10.2783 21.7741 10.2727 22.1777 10.2727 22.6414V27.9677C10.2727 28.4313 10.2783 28.8377 10.2889 29.1868C10.3 29.5304 10.3162 29.8276 10.3379 30.0786C10.3597 30.3295 10.3842 30.5395 10.4115 30.7086C10.4444 30.8776 10.4768 31.0194 10.5097 31.134V31.1667H8.54924V31.134C8.58214 31.0194 8.61169 30.8776 8.63902 30.7086C8.67191 30.5395 8.69644 30.3295 8.71261 30.0786C8.73435 29.8276 8.75053 29.5304 8.76168 29.1868C8.77785 28.8377 8.78621 28.4313 8.78621 27.9677V25.5541ZM12.7556 22.3714C13.2892 22.3714 13.8367 22.3714 14.3971 22.3714C14.958 22.3659 15.4782 22.3605 15.9572 22.355C16.4367 22.3441 16.8476 22.3332 17.1905 22.3223C17.539 22.3114 17.7676 22.295 17.8769 22.2732L17.558 23.1568C17.4113 23.1186 17.2452 23.0832 17.0601 23.0505C16.8967 23.0232 16.6976 22.9987 16.464 22.9768C16.2349 22.9496 15.9683 22.9359 15.6633 22.9359C15.5546 22.9359 15.4292 22.9413 15.2875 22.9523C15.1459 22.9577 15.0099 22.9659 14.8794 22.9768C14.7266 22.9877 14.5716 22.9987 14.4138 23.0095V26.2413C14.8549 26.2359 15.2524 26.2249 15.6059 26.2086C15.96 26.1923 16.2622 26.1704 16.5125 26.1432C16.8069 26.1213 17.0656 26.0913 17.2887 26.0531L17.0924 27.0268C16.793 26.9886 16.4908 26.9558 16.1858 26.9286C15.9248 26.9013 15.636 26.8795 15.3204 26.8631C15.0043 26.8413 14.7021 26.8304 14.4138 26.8304V30.5449C14.9201 30.5449 15.3857 30.5258 15.8105 30.4876C16.2349 30.444 16.6051 30.3976 16.9212 30.3486C17.2915 30.2885 17.626 30.2204 17.926 30.144L17.7381 31.2159C17.6561 31.2103 17.5228 31.2019 17.3377 31.1913C17.1582 31.1857 16.9675 31.1801 16.7662 31.1751C16.5699 31.1751 16.3848 31.1723 16.2103 31.1667C16.0364 31.1667 15.9165 31.1667 15.8512 31.1667H12.7556V31.134C12.7935 31.0194 12.8264 30.8722 12.8537 30.6922C12.8861 30.5122 12.9106 30.2913 12.9273 30.0295C12.9491 29.7622 12.9652 29.4458 12.9764 29.0804C12.987 28.715 12.9926 28.2868 12.9926 27.7958V25.734C12.9926 25.2431 12.987 24.8177 12.9764 24.4577C12.9652 24.0923 12.9491 23.7787 12.9273 23.5168C12.9106 23.2495 12.8861 23.0259 12.8537 22.8459C12.8264 22.6659 12.7935 22.5186 12.7556 22.4041V22.3714ZM21.4053 26.8959C21.514 26.9122 21.6227 26.9258 21.732 26.9368C21.8463 26.9422 21.955 26.945 22.0587 26.945C22.739 26.945 23.2536 26.7623 23.6021 26.3968C23.9562 26.0313 24.1329 25.4831 24.1329 24.7522C24.1329 24.1523 23.9913 23.6777 23.7086 23.3286C23.4309 22.9796 23.0194 22.805 22.4752 22.805C22.3007 22.805 22.1457 22.8132 22.0097 22.8295C21.8786 22.8405 21.7671 22.8541 21.6746 22.8705C21.5714 22.8923 21.4816 22.9141 21.4053 22.9359V26.8959ZM22.6548 27.4277C22.546 27.4441 22.4368 27.455 22.328 27.4604C22.2249 27.4604 22.1184 27.4604 22.0097 27.4604C21.9227 27.4604 21.8273 27.4577 21.7236 27.4522C21.6205 27.4467 21.514 27.4386 21.4053 27.4277V27.8286C21.4053 28.314 21.4108 28.7395 21.4214 29.1049C21.4326 29.4649 21.446 29.7758 21.4621 30.0376C21.4839 30.2995 21.5084 30.5204 21.5357 30.7003C21.563 30.8749 21.5959 31.0194 21.6339 31.134V31.1667H19.747V31.134C19.7855 31.0194 19.8178 30.8722 19.8452 30.6922C19.8781 30.5122 19.902 30.2913 19.9187 30.0295C19.9405 29.7622 19.9567 29.4458 19.9678 29.0804C19.9784 28.715 19.984 28.2868 19.984 27.7958V25.734C19.984 25.2431 19.9784 24.8177 19.9678 24.4577C19.9567 24.0923 19.9405 23.7787 19.9187 23.5168C19.902 23.2495 19.8781 23.0259 19.8452 22.8459C19.8178 22.6659 19.7855 22.5186 19.747 22.4041V22.3714C19.834 22.3768 19.9266 22.3823 20.0247 22.3877C20.1067 22.3932 20.1964 22.3987 20.2946 22.4041C20.3977 22.4041 20.5014 22.4041 20.6046 22.4041C20.7791 22.4041 21.0378 22.3877 21.3807 22.355C21.7236 22.3223 22.1268 22.3059 22.5895 22.3059C23.0579 22.3059 23.4822 22.3632 23.8636 22.4778C24.25 22.5923 24.5795 22.7559 24.8516 22.9687C25.1298 23.1814 25.3417 23.4405 25.4889 23.7459C25.6411 24.0513 25.7175 24.3923 25.7175 24.7686C25.7175 25.0632 25.6768 25.3332 25.5949 25.5786C25.5135 25.8186 25.3992 26.0368 25.252 26.2331C25.1053 26.4241 24.9308 26.5931 24.7295 26.7404C24.5277 26.8877 24.3046 27.0159 24.0599 27.125L25.7666 29.5386C25.9138 29.7349 26.0604 29.9231 26.2076 30.1031C26.3604 30.2831 26.5043 30.444 26.6403 30.5858C26.7769 30.7277 26.9046 30.8476 27.0245 30.9458C27.1444 31.0385 27.2447 31.1013 27.3267 31.134V31.1667H25.1867C25.1867 31.1176 25.1516 31.0331 25.0808 30.9131C25.015 30.7876 24.9364 30.6595 24.8438 30.5285C24.7568 30.3922 24.6665 30.2613 24.5739 30.1358C24.487 30.0104 24.4217 29.9177 24.3782 29.8576L22.6548 27.4277ZM27.5469 26.7404C27.5469 26.0968 27.6668 25.4995 27.9066 24.9486C28.1513 24.3977 28.4837 23.9205 28.903 23.5168C29.3223 23.1077 29.8179 22.7886 30.3895 22.5595C30.961 22.3305 31.5737 22.2159 32.2272 22.2159C32.8695 22.2159 33.474 22.325 34.0405 22.5432C34.612 22.7559 35.1077 23.0614 35.527 23.4596C35.9518 23.8577 36.2864 24.3404 36.5317 24.9077C36.7765 25.475 36.8991 26.1104 36.8991 26.814C36.8991 27.3977 36.7954 27.9622 36.5886 28.5077C36.3817 29.0477 36.0795 29.5276 35.682 29.9477C35.2844 30.3622 34.7943 30.6949 34.2122 30.9458C33.6295 31.1913 32.9621 31.3142 32.211 31.3142C31.5737 31.3142 30.9721 31.2075 30.4056 30.9949C29.8397 30.7822 29.344 30.4794 28.9191 30.0867C28.4948 29.6885 28.1597 29.2085 27.9149 28.6468C27.6696 28.0795 27.5469 27.4441 27.5469 26.7404ZM32.4151 30.7331C32.8288 30.7331 33.2102 30.6512 33.5587 30.4876C33.9072 30.324 34.2066 30.0895 34.457 29.784C34.7129 29.4785 34.9092 29.1077 35.0452 28.6713C35.1868 28.2295 35.2576 27.7331 35.2576 27.1822C35.2576 26.555 35.1891 25.974 35.053 25.4395C34.9225 24.905 34.7213 24.4441 34.4486 24.0568C34.1821 23.6641 33.847 23.3586 33.4444 23.1405C33.0413 22.9168 32.5701 22.805 32.031 22.805C31.6172 22.805 31.2364 22.8841 30.8879 23.0423C30.5394 23.2005 30.2372 23.4296 29.9813 23.7296C29.7304 24.0295 29.5347 24.3977 29.3931 24.8341C29.2515 25.2705 29.1806 25.7668 29.1806 26.3231C29.1806 26.945 29.2487 27.5258 29.3847 28.0658C29.5263 28.6004 29.7304 29.0667 29.9975 29.4649C30.2696 29.8576 30.6075 30.1686 31.01 30.3976C31.4132 30.6213 31.8815 30.7331 32.4151 30.7331ZM46.4142 31.2812H46.0958L39.6028 24.8832V27.7958C39.6028 28.2868 39.6051 28.715 39.6106 29.0804C39.6162 29.4458 39.6246 29.7622 39.6352 30.0295C39.6513 30.2913 39.6709 30.5122 39.6926 30.6922C39.7194 30.8722 39.7523 31.0194 39.7902 31.134V31.1667H38.5652V31.134C38.6037 31.0194 38.636 30.8722 38.6633 30.6922C38.6906 30.5122 38.7124 30.2913 38.7285 30.0295C38.7447 29.7622 38.7559 29.4458 38.7615 29.0804C38.767 28.715 38.7692 28.2868 38.7692 27.7958V25.734C38.7692 25.2431 38.767 24.8177 38.7615 24.4577C38.7559 24.0923 38.7447 23.7787 38.7285 23.5168C38.7124 23.2495 38.6906 23.0259 38.6633 22.8459C38.636 22.6659 38.6037 22.5186 38.5652 22.4041V22.3714H39.0715L45.5733 28.8022V25.734C45.5733 25.2431 45.5705 24.8177 45.565 24.4577C45.5594 24.0923 45.5488 23.7787 45.5321 23.5168C45.5215 23.2495 45.5048 23.0259 45.483 22.8459C45.4613 22.6659 45.4317 22.5186 45.3932 22.4041V22.3714H46.6104V22.4041C46.5725 22.5186 46.5396 22.6659 46.5123 22.8459C46.4906 23.0259 46.4716 23.2495 46.4554 23.5168C46.4387 23.7787 46.4281 24.0923 46.4225 24.4577C46.417 24.8177 46.4142 25.2431 46.4142 25.734V31.2812ZM52.736 24.0814H52.5726C52.5402 23.9886 52.4856 23.8714 52.4092 23.7296C52.3384 23.5877 52.2408 23.4486 52.1154 23.3123C51.9955 23.1759 51.8461 23.0614 51.666 22.9687C51.4864 22.8705 51.2712 22.8214 51.0208 22.8214C50.8302 22.8214 50.659 22.8541 50.5062 22.9196C50.3596 22.9796 50.2341 23.0641 50.1304 23.1732C50.0272 23.2823 49.9481 23.4132 49.894 23.5659C49.8393 23.7132 49.812 23.8741 49.812 24.0487C49.812 24.3323 49.8962 24.6023 50.0652 24.8586C50.2397 25.115 50.4543 25.3713 50.7103 25.6277C50.9662 25.8786 51.2439 26.1322 51.5439 26.3886C51.8433 26.645 52.1209 26.9122 52.3769 27.1904C52.6328 27.4686 52.8452 27.7631 53.0136 28.074C53.1881 28.3849 53.2751 28.7176 53.2751 29.0722C53.2751 29.334 53.2261 29.604 53.1279 29.8822C53.0354 30.1603 52.8832 30.4113 52.6707 30.6349C52.4583 30.8585 52.1862 31.0413 51.8539 31.1829C51.5215 31.3304 51.119 31.4041 50.645 31.4041C50.3835 31.4041 50.1332 31.3823 49.894 31.3388C49.6598 31.2946 49.4418 31.2404 49.2405 31.1751C49.0442 31.1149 48.8675 31.0494 48.7097 30.9785C48.5569 30.9022 48.4292 30.8313 48.3255 30.7658L48.4727 29.2195H48.6439C48.6986 29.4104 48.7777 29.6013 48.8809 29.7922C48.9896 29.9831 49.1206 30.1577 49.2728 30.3158C49.4306 30.4685 49.6135 30.594 49.8204 30.6922C50.0328 30.7849 50.2748 30.8313 50.5469 30.8313C50.7376 30.8313 50.9177 30.8013 51.0861 30.7413C51.255 30.6758 51.3994 30.5858 51.5193 30.4713C51.6442 30.3567 51.7423 30.2177 51.8132 30.054C51.884 29.8849 51.9191 29.6968 51.9191 29.4895C51.9191 29.244 51.87 29.0176 51.7725 28.8104C51.6743 28.5977 51.5438 28.3959 51.3805 28.205C51.2171 28.0086 51.032 27.8204 50.8246 27.6404C50.6233 27.4604 50.4136 27.2777 50.1962 27.0922C49.9782 26.9067 49.7657 26.7186 49.5589 26.5277C49.3576 26.3313 49.1747 26.1213 49.0119 25.8977C48.8485 25.6741 48.7175 25.4368 48.6194 25.1859C48.5218 24.9295 48.4727 24.6486 48.4727 24.3432C48.4727 24.0213 48.5408 23.7323 48.6768 23.4759C48.8128 23.2196 48.9924 23.0041 49.216 22.8295C49.439 22.6496 49.6949 22.5132 49.9838 22.4205C50.272 22.3223 50.5714 22.2732 50.882 22.2732C51.1106 22.2732 51.323 22.2895 51.5193 22.3223C51.7206 22.355 51.9002 22.3959 52.0579 22.445C52.2213 22.4887 52.3629 22.535 52.4828 22.5841C52.6027 22.6277 52.7008 22.6632 52.7766 22.6905L52.736 24.0814ZM54.484 20.0068C54.484 19.7887 54.5603 19.606 54.7125 19.4587C54.8653 19.3114 55.0555 19.2378 55.2846 19.2378C55.5021 19.2378 55.6872 19.3223 55.84 19.4914C55.9922 19.6605 56.0686 19.8705 56.0686 20.1214C56.0686 20.3123 56.0251 20.5196 55.9375 20.7432C55.8506 20.9669 55.7363 21.1932 55.5946 21.4223C55.4586 21.6514 55.3036 21.8805 55.1291 22.1096C54.9551 22.3332 54.7778 22.5432 54.5982 22.7395L54.378 22.5514C54.6228 22.2678 54.8269 21.9786 54.9902 21.6841C55.1536 21.3896 55.2517 21.0978 55.2846 20.8087C55.0666 20.7923 54.8787 20.7132 54.7209 20.5714C54.5631 20.4241 54.484 20.236 54.484 20.0068ZM71.1053 25.5541C70.8872 25.5486 70.6152 25.5459 70.2884 25.5459C69.9617 25.5405 69.6048 25.535 69.2184 25.5295C68.8371 25.5241 68.4367 25.5213 68.0174 25.5213C67.6037 25.5159 67.1983 25.5131 66.8008 25.5131C66.4032 25.5077 66.0246 25.5077 65.6656 25.5131C65.3059 25.5186 64.9931 25.5268 64.726 25.5377V27.9677C64.726 28.4313 64.7316 28.8377 64.7422 29.1868C64.7589 29.5304 64.7751 29.8276 64.7913 30.0786C64.813 30.3295 64.8376 30.5395 64.8649 30.7086C64.8978 30.8776 64.9301 31.0194 64.963 31.134V31.1667H63.0026V31.134C63.0355 31.0194 63.0656 30.8776 63.0923 30.7086C63.1252 30.5395 63.1526 30.3295 63.1743 30.0786C63.1961 29.8276 63.2122 29.5304 63.2234 29.1868C63.234 28.8377 63.2396 28.4313 63.2396 27.9677V22.6414C63.2396 22.1777 63.234 21.7741 63.2234 21.4305C63.2122 21.0814 63.1961 20.7814 63.1743 20.5305C63.1526 20.2741 63.1252 20.0614 63.0923 19.8923C63.0656 19.7232 63.0355 19.5814 63.0026 19.4668V19.4341H64.963V19.4668C64.9301 19.5814 64.8978 19.7232 64.8649 19.8923C64.8376 20.0614 64.813 20.2741 64.7913 20.5305C64.7751 20.7814 64.7589 21.0814 64.7422 21.4305C64.7316 21.7741 64.726 22.1777 64.726 22.6414V24.7359C65.0093 24.7468 65.3305 24.755 65.6901 24.7605C66.0492 24.7605 66.425 24.7605 66.817 24.7605C67.2089 24.755 67.6065 24.7495 68.0096 24.7441C68.4177 24.7386 68.8097 24.7331 69.1855 24.7277C69.5669 24.7168 69.921 24.7059 70.2472 24.695C70.5795 24.6841 70.8655 24.6732 71.1053 24.6623V22.6414C71.1053 22.1777 71.0969 21.7741 71.0807 21.4305C71.0696 21.0814 71.0534 20.7814 71.0317 20.5305C71.0149 20.2741 70.9904 20.0614 70.9581 19.8923C70.9307 19.7232 70.9006 19.5814 70.8683 19.4668V19.4341H72.8282V19.4668C72.7958 19.5814 72.7629 19.7232 72.7306 19.8923C72.7033 20.0614 72.6787 20.2741 72.657 20.5305C72.6352 20.7814 72.6185 21.0814 72.6079 21.4305C72.5968 21.7741 72.5918 22.1777 72.5918 22.6414V27.9677C72.5918 28.4313 72.5968 28.8377 72.6079 29.1868C72.6185 29.5304 72.6352 29.8276 72.657 30.0786C72.6787 30.3295 72.7033 30.5395 72.7306 30.7086C72.7629 30.8776 72.7958 31.0194 72.8282 31.134V31.1667H70.8683V31.134C70.9006 31.0194 70.9307 30.8776 70.9581 30.7086C70.9904 30.5395 71.0149 30.3295 71.0317 30.0786C71.0534 29.8276 71.0696 29.5304 71.0807 29.1868C71.0969 28.8377 71.1053 28.4313 71.1053 27.9677V25.5541ZM81.7962 25.7013C81.7962 25.2159 81.7934 24.7932 81.7884 24.4331C81.7828 24.0732 81.7717 23.7623 81.7555 23.5004C81.7393 23.2387 81.7204 23.0204 81.6986 22.8459C81.6769 22.6659 81.6496 22.5186 81.6167 22.4041V22.3714H82.8171V22.4041C82.7848 22.5186 82.7575 22.6659 82.7357 22.8459C82.714 23.0259 82.695 23.2495 82.6783 23.5168C82.6621 23.7787 82.6515 24.0923 82.6459 24.4577C82.6404 24.8177 82.6376 25.2431 82.6376 25.734V28.0822C82.6376 28.6713 82.545 29.1731 82.3599 29.5877C82.1804 30.0022 81.93 30.3431 81.6083 30.6104C81.2871 30.8722 80.9035 31.0631 80.4569 31.1829C80.0159 31.3086 79.5313 31.3711 79.0033 31.3711C78.4697 31.3711 77.974 31.3114 77.5168 31.1913C77.059 31.0767 76.6615 30.8912 76.3242 30.6349C75.9919 30.3786 75.7281 30.0458 75.5319 29.6367C75.3412 29.2276 75.2458 28.7313 75.2458 28.1477V25.734C75.2458 25.2431 75.2408 24.8177 75.2296 24.4577C75.2185 24.0923 75.2023 23.7787 75.1806 23.5168C75.1588 23.2495 75.1343 23.0259 75.107 22.8459C75.0797 22.6659 75.0473 22.5186 75.0094 22.4041V22.3714H76.8957V22.4041C76.8578 22.5186 76.8249 22.6659 76.7981 22.8459C76.7708 23.0204 76.7462 23.2387 76.7245 23.5004C76.7078 23.7623 76.6944 24.0732 76.6832 24.4331C76.6726 24.7932 76.6671 25.2159 76.6671 25.7013V28.1477C76.6671 28.6331 76.7407 29.034 76.8879 29.3504C77.0345 29.6613 77.228 29.9094 77.4678 30.0949C77.707 30.2804 77.9796 30.4113 78.2846 30.4876C78.589 30.5585 78.9024 30.594 79.2236 30.594C79.5503 30.594 79.8659 30.5585 80.1709 30.4876C80.4814 30.4113 80.7563 30.2804 80.9961 30.0949C81.2409 29.9094 81.4343 29.6613 81.576 29.3504C81.7232 29.034 81.7962 28.6331 81.7962 28.1477V25.7013ZM87.6853 26.8631C87.4238 26.8631 87.2008 26.8741 87.0157 26.8959C86.8356 26.9122 86.6967 26.9286 86.5992 26.945V27.7958C86.5992 28.2649 86.5992 28.6577 86.5992 28.974C86.6042 29.2904 86.6098 29.5549 86.6153 29.7676C86.6259 29.9804 86.6343 30.1522 86.6399 30.2831C86.6454 30.4086 86.6532 30.5176 86.6644 30.6104C86.806 30.6486 86.9555 30.6731 87.1132 30.684C87.2766 30.6949 87.4048 30.7003 87.4974 30.7003C88.249 30.7003 88.7932 30.5367 89.1311 30.2094C89.474 29.8767 89.6457 29.364 89.6457 28.6713C89.6457 28.4095 89.6045 28.1668 89.5231 27.9431C89.4411 27.7195 89.319 27.5286 89.1556 27.3704C88.9923 27.2122 88.7876 27.0895 88.5429 27.0022C88.2981 26.9095 88.0121 26.8631 87.6853 26.8631ZM86.5992 26.3068C86.7079 26.3231 86.806 26.3341 86.893 26.3395C86.98 26.3395 87.0697 26.3395 87.1623 26.3395C87.7126 26.3395 88.1481 26.1868 88.4693 25.8813C88.796 25.5759 88.9594 25.1204 88.9594 24.515C88.9594 24.2696 88.9265 24.0432 88.8612 23.8359C88.796 23.6286 88.7007 23.4513 88.5758 23.3041C88.4559 23.1568 88.3031 23.0423 88.118 22.9604C87.9385 22.8786 87.7316 22.8377 87.4974 22.8377C87.3396 22.8377 87.2064 22.8459 87.0971 22.8623C86.9883 22.8732 86.8958 22.8841 86.8194 22.895C86.7324 22.9168 86.6588 22.9359 86.5992 22.9523V26.3068ZM84.9409 22.355C85.0446 22.3605 85.1506 22.3632 85.2593 22.3632C85.3519 22.3686 85.4528 22.3714 85.5615 22.3714C85.6708 22.3714 85.7767 22.3714 85.8804 22.3714C86.0488 22.3714 86.283 22.3605 86.5824 22.3386C86.8819 22.3168 87.2549 22.3059 87.7015 22.3059C88.099 22.3059 88.4665 22.355 88.8044 22.4532C89.1473 22.5459 89.4411 22.6823 89.6864 22.8623C89.9368 23.0423 90.1303 23.2632 90.2663 23.525C90.408 23.7868 90.4788 24.0841 90.4788 24.4168C90.4788 24.7005 90.4375 24.9541 90.3561 25.1777C90.2797 25.3959 90.1682 25.5895 90.021 25.7586C89.8744 25.9223 89.697 26.0613 89.4902 26.1759C89.2833 26.285 89.0547 26.3722 88.8044 26.4377C89.169 26.4923 89.5013 26.5822 89.8008 26.7077C90.1002 26.8331 90.3561 26.9913 90.5685 27.1822C90.781 27.3677 90.9443 27.5886 91.0586 27.8449C91.173 28.0959 91.2298 28.3768 91.2298 28.6876C91.2298 29.5495 90.9226 30.1958 90.307 30.6267C89.692 31.0522 88.7743 31.265 87.5548 31.265C87.4238 31.265 87.2604 31.2594 87.0647 31.2483C86.874 31.2377 86.6722 31.2265 86.4603 31.2159C86.2535 31.2047 86.0516 31.1941 85.8559 31.1829C85.6652 31.1723 85.5046 31.1667 85.3736 31.1667H84.9409V31.134C84.9789 31.0194 85.0117 30.8722 85.0391 30.6922C85.0714 30.5122 85.0959 30.2913 85.1127 30.0295C85.1344 29.7622 85.1506 29.4458 85.1617 29.0804C85.1723 28.715 85.1779 28.2868 85.1779 27.7958V25.734C85.1779 25.2431 85.1723 24.815 85.1617 24.4495C85.1506 24.0841 85.1344 23.7677 85.1127 23.5004C85.0959 23.2332 85.0714 23.0095 85.0391 22.8295C85.0117 22.6496 84.9789 22.5023 84.9409 22.3877V22.355Z" fill="#FAFAFA"/>
</svg>
