<svg width="1048" height="1162" viewBox="0 0 1048 1162" fill="none" xmlns="http://www.w3.org/2000/svg">
<g filter="url(#filter0_n_812_1075)">
<path d="M895.61 9.70801C898.651 5.67875 894.837 0.316049 890.238 1.74707C739.158 48.7726 518.345 117.803 328.653 177.759C138.91 237.73 -19.5768 288.585 -46.1113 299.283C-80.2694 313.055 -172.006 335.072 -260.446 401.517C-348.783 467.884 -433.752 578.576 -453.827 769.649C-453.98 771.105 -454.529 772.547 -455.426 773.733L-693.141 1088.13L-676.705 1111.35L-676.704 1111.35C-648.646 1151.06 -633.505 1169.67 -617.461 1181.79L-96.377 1009.52C-94.0936 1008.76 -92.8528 1006.7 -92.7842 1004.43C-92.7154 1002.14 -93.8422 999.894 -96.0684 998.864C-129.114 983.581 -169.829 954.636 -198.274 910.284C-226.745 865.892 -242.874 806.139 -226.803 729.407C-209.159 645.164 -156.216 589.412 -97.3174 553.975C-38.4458 518.554 26.4577 503.372 68.3057 500.252L68.3447 500.249L68.3838 500.248L69.9473 500.218C103.102 499.665 156.413 504.503 210.791 520.806C266.019 537.363 322.518 565.799 360.051 612.601C434.754 705.753 452.571 772.689 459.554 806.128C463.054 822.893 465.241 849.589 464.985 877.826C464.729 906.063 462.029 935.982 455.687 959.174C447.752 988.19 443.302 1004.7 438.114 1019.15C432.916 1033.64 426.983 1046.04 416.11 1066.88C413.411 1072.05 404.836 1084.16 392.825 1100.27C380.774 1116.43 365.168 1136.73 348.309 1158.38C314.594 1201.66 275.85 1250.32 250.454 1281.92C232.697 1305.26 206.341 1341.19 182.469 1376.34C158.556 1411.55 137.246 1445.83 129.478 1465.9C128.337 1468.85 130.685 1471.84 134.168 1471.47C173.277 1467.26 231.225 1459.65 286.433 1449.55C341.708 1439.43 394.019 1426.84 422.004 1412.72C422.344 1412.55 422.631 1412.36 422.908 1412.12L423.184 1411.87C461.968 1373.33 521.092 1304.68 573.022 1223.3C624.967 1141.89 669.622 1047.88 679.639 958.61C703.111 749.419 625.638 600.26 576.139 534.234C571.78 528.42 576.622 520.013 583.838 520.859C725.467 537.473 831.007 542.972 905.951 542.968C980.94 542.963 1025.2 537.447 1044.33 532.089C1045.18 531.849 1045.87 531.368 1046.22 530.867C1046.54 530.423 1046.59 530.004 1046.35 529.533C1045.5 527.869 1043.69 525.909 1040.84 523.678C1038.02 521.468 1034.29 519.081 1029.77 516.533C1020.71 511.437 1008.58 505.768 994.338 499.622C965.837 487.326 929.097 473.223 891.917 458.083C854.778 442.96 817.242 426.819 787.307 410.496C772.34 402.335 759.231 394.106 749.008 385.911C738.811 377.737 731.352 369.492 727.868 361.263C726.897 358.969 724.824 357.333 722.551 357.212C615.614 351.517 584.412 343.032 567.267 335.36C563.621 333.729 562.237 329.984 562.612 326.656C562.987 323.329 565.17 319.986 569.092 319.216C581.888 316.702 591.108 315.855 598.313 315.062C605.55 314.267 610.604 313.536 615.339 311.343C620.048 309.161 624.57 305.468 630.525 298.5C636.49 291.521 643.808 281.363 654.141 266.354C679.765 229.134 708.15 208.433 731.048 195.371C742.472 188.854 752.561 184.224 760.146 180.442C763.957 178.542 767.107 176.87 769.523 175.277C771.965 173.667 773.489 172.243 774.232 170.901C774.505 170.409 774.864 169.701 775.335 169.077L895.61 9.70801ZM89.9756 688.476C42.8825 687.974 4.14568 727.81 3.61523 777.62C3.08481 827.43 40.9646 868.081 88.0576 868.583C135.151 869.084 173.888 829.248 174.418 779.438C174.948 729.629 137.069 688.977 89.9756 688.476Z" stroke="white" stroke-opacity="0.09" stroke-width="3"/>
</g>
<defs>
<filter id="filter0_n_812_1075" x="-695" y="0" width="1743" height="1473" filterUnits="userSpaceOnUse" color-interpolation-filters="sRGB">
<feFlood flood-opacity="0" result="BackgroundImageFix"/>
<feBlend mode="normal" in="SourceGraphic" in2="BackgroundImageFix" result="shape"/>
<feTurbulence type="fractalNoise" baseFrequency="5.5215282440185547 5.5215282440185547" stitchTiles="stitch" numOctaves="3" result="noise" seed="5563" />
<feColorMatrix in="noise" type="luminanceToAlpha" result="alphaNoise" />
<feComponentTransfer in="alphaNoise" result="coloredNoise1">
<feFuncA type="discrete" tableValues="1 1 1 1 1 1 1 1 1 1 1 1 1 1 1 1 1 1 1 1 1 1 1 1 1 1 1 1 1 1 1 1 1 1 1 1 1 1 1 1 1 1 1 1 1 1 1 1 1 1 1 0 0 0 0 0 0 0 0 0 0 0 0 0 0 0 0 0 0 0 0 0 0 0 0 0 0 0 0 0 0 0 0 0 0 0 0 0 0 0 0 0 0 0 0 0 0 0 0 0 "/>
</feComponentTransfer>
<feComposite operator="in" in2="shape" in="coloredNoise1" result="noise1Clipped" />
<feFlood flood-color="rgba(0, 0, 0, 0.25)" result="color1Flood" />
<feComposite operator="in" in2="noise1Clipped" in="color1Flood" result="color1" />
<feMerge result="effect1_noise_812_1075">
<feMergeNode in="shape" />
<feMergeNode in="color1" />
</feMerge>
</filter>
</defs>
</svg>
