<svg width="796" height="675" viewBox="0 0 796 675" fill="none" xmlns="http://www.w3.org/2000/svg">
<mask id="mask0_194_694" style="mask-type:alpha" maskUnits="userSpaceOnUse" x="0" y="2" width="796" height="673">
<path d="M285.438 647.702C285.165 647.564 284.942 647.402 284.726 647.187C249.275 611.963 176.714 521.757 167.541 440C156.811 344.355 192.227 276.138 214.887 245.91C216.515 243.739 214.697 240.582 212.003 240.899C82.7481 256.062 19.318 250.943 1.67813 246.001C0.654613 245.714 -0.152884 244.811 0.331116 243.864C7.63378 229.586 133.403 195.935 145.591 167.143C146.116 165.902 147.265 164.95 148.61 164.879C197.392 162.28 211.509 158.411 219.202 154.968C221.856 153.781 221.37 149.46 218.517 148.9C195.302 144.339 198.137 151.879 179.289 124.5C156.054 90.7477 127.842 86.9819 124.472 80.8974C124.33 80.6402 124.199 80.3808 124.022 80.1461L69.1561 7.44085C67.4004 5.11425 69.5733 1.877 72.3563 2.74331C210.194 45.6503 475.269 128.713 499.541 138.5C530.491 150.98 667.595 178.909 685.952 353.647C686.01 354.193 686.216 354.731 686.547 355.169L795.287 499L791.394 504.5L787.5 510C774.544 528.338 767.567 536.904 760.041 542.5L522 463.797C519.271 462.895 519.178 458.873 521.786 457.666C551.751 443.807 595.629 405.157 581.041 335.5C565.041 259.1 485.041 234.333 447.041 231.5C417.041 230.833 348.541 240.1 314.541 282.5C280.541 324.9 272.454 355.333 269.287 370.5C266.12 385.667 265.299 419.001 271.041 440C278.287 466.5 279.128 470 289.041 489C293.841 498.2 341.374 558.167 364.541 587C380.753 608.308 412.672 652.617 419.826 671.107C420.559 673.002 418.994 674.791 416.974 674.573C381.269 670.729 311.17 660.69 285.438 647.702Z" fill="url(#paint0_linear_194_694)"/>
</mask>
<g mask="url(#mask0_194_694)">
<g filter="url(#filter0_n_194_694)">
<path d="M156.295 -176.879C94.6773 -200.85 40.2617 -118.252 20.756 -73.9567L-0.25 663.433L1736.75 737.042L1714.24 104.528C1707.74 10.7259 1685.94 -181.96 1650.73 -202.284C1606.71 -227.688 1485.68 -303.251 1439.66 -303.251C1393.65 -303.251 1358.64 -247.882 1309.63 -234.202C1260.61 -220.523 1177.59 -291.526 1128.57 -303.251C1079.56 -314.977 982.533 -176.879 942.021 -176.879C901.51 -176.879 928.017 -217.917 838.491 -275.241C748.966 -332.564 732.961 -142.354 676.445 -142.354C619.928 -142.354 579.917 -275.241 518.399 -275.241C456.882 -275.241 490.391 -142.354 405.867 -142.354C321.343 -142.354 365.355 -204.238 309.339 -217.917C253.323 -231.597 233.317 -146.914 156.295 -176.879Z" fill="url(#paint1_linear_194_694)"/>
</g>
<g filter="url(#filter1_n_194_694)">
<path d="M-388.673 84.3022C-421.678 109.945 -441.181 41.7893 -535.194 84.3022H-573.7C-594.703 84.3022 -600.204 -0.0489388 -660.713 30.3175C-721.221 60.6839 -715.221 -33.1146 -781.23 -43.9116C-834.038 -52.5492 -799.566 573.764 -775.729 888H795C792.666 662.614 786.199 206.038 778.998 182.824C769.996 153.808 762.995 13.4472 716.989 -0.0489388C670.982 -13.5451 607.473 70.806 577.468 84.3022C547.464 97.7985 439.948 -16.9192 387.44 -33.1146C334.933 -49.31 310.929 13.4472 244.42 30.3175C177.91 47.1877 122.402 -16.9192 82.3959 -16.9192C42.3901 -16.9192 13.8859 37.0656 -20.6191 49.2121C-55.1242 61.3587 -104.631 -0.0489388 -125.634 -0.0489388C-146.638 -0.0489388 -212.647 49.2121 -228.149 49.2121C-243.652 49.2121 -282.657 -0.0489388 -313.662 -0.0489388C-344.666 -0.0489388 -355.668 58.6595 -388.673 84.3022Z" fill="url(#paint2_linear_194_694)"/>
</g>
</g>
<defs>
<filter id="filter0_n_194_694" x="-0.25" y="-303.958" width="1737" height="1041" filterUnits="userSpaceOnUse" color-interpolation-filters="sRGB">
<feFlood flood-opacity="0" result="BackgroundImageFix"/>
<feBlend mode="normal" in="SourceGraphic" in2="BackgroundImageFix" result="shape"/>
<feTurbulence type="fractalNoise" baseFrequency="2 2" stitchTiles="stitch" numOctaves="3" result="noise" seed="7353" />
<feColorMatrix in="noise" type="luminanceToAlpha" result="alphaNoise" />
<feComponentTransfer in="alphaNoise" result="coloredNoise1">
<feFuncA type="discrete" tableValues="1 1 1 1 1 1 1 1 1 1 1 1 1 1 1 1 1 1 1 1 1 1 1 1 1 1 1 1 1 1 1 1 1 1 1 1 1 1 1 1 1 1 1 1 1 1 1 1 1 1 1 0 0 0 0 0 0 0 0 0 0 0 0 0 0 0 0 0 0 0 0 0 0 0 0 0 0 0 0 0 0 0 0 0 0 0 0 0 0 0 0 0 0 0 0 0 0 0 0 0 "/>
</feComponentTransfer>
<feComposite operator="in" in2="shape" in="coloredNoise1" result="noise1Clipped" />
<feFlood flood-color="rgba(0, 0, 0, 0.25)" result="color1Flood" />
<feComposite operator="in" in2="noise1Clipped" in="color1Flood" result="color1" />
<feMerge result="effect1_noise_194_694">
<feMergeNode in="shape" />
<feMergeNode in="color1" />
</feMerge>
</filter>
<filter id="filter1_n_194_694" x="-809" y="-44" width="1604" height="932" filterUnits="userSpaceOnUse" color-interpolation-filters="sRGB">
<feFlood flood-opacity="0" result="BackgroundImageFix"/>
<feBlend mode="normal" in="SourceGraphic" in2="BackgroundImageFix" result="shape"/>
<feTurbulence type="fractalNoise" baseFrequency="2 2" stitchTiles="stitch" numOctaves="3" result="noise" seed="9074" />
<feColorMatrix in="noise" type="luminanceToAlpha" result="alphaNoise" />
<feComponentTransfer in="alphaNoise" result="coloredNoise1">
<feFuncA type="discrete" tableValues="1 1 1 1 1 1 1 1 1 1 1 1 1 1 1 1 1 1 1 1 1 1 1 1 1 1 1 1 1 1 1 1 1 1 1 1 1 1 1 1 1 1 1 1 1 1 1 1 1 1 1 0 0 0 0 0 0 0 0 0 0 0 0 0 0 0 0 0 0 0 0 0 0 0 0 0 0 0 0 0 0 0 0 0 0 0 0 0 0 0 0 0 0 0 0 0 0 0 0 0 "/>
</feComponentTransfer>
<feComposite operator="in" in2="shape" in="coloredNoise1" result="noise1Clipped" />
<feFlood flood-color="rgba(0, 0, 0, 0.25)" result="color1Flood" />
<feComposite operator="in" in2="noise1Clipped" in="color1Flood" result="color1" />
<feMerge result="effect1_noise_194_694">
<feMergeNode in="shape" />
<feMergeNode in="color1" />
</feMerge>
</filter>
<linearGradient id="paint0_linear_194_694" x1="-28.0001" y1="-28.4999" x2="721" y2="697.5" gradientUnits="userSpaceOnUse">
<stop stop-color="#316CFF"/>
<stop offset="1" stop-color="#658FF9"/>
</linearGradient>
<linearGradient id="paint1_linear_194_694" x1="759.969" y1="-650.45" x2="1441.35" y2="553.043" gradientUnits="userSpaceOnUse">
<stop stop-color="#105389"/>
<stop offset="1" stop-color="#1C73B9"/>
</linearGradient>
<linearGradient id="paint2_linear_194_694" x1="-7" y1="-44" x2="-7" y2="888" gradientUnits="userSpaceOnUse">
<stop stop-color="#111C4E"/>
<stop offset="1" stop-color="#28ADC4"/>
</linearGradient>
</defs>
</svg>
