<svg width="1079" height="266" viewBox="0 0 1079 266" fill="none" xmlns="http://www.w3.org/2000/svg">
<g filter="url(#filter0_n_648_828)">
<path d="M172.814 128.496C172.903 136.852 166.546 143.694 158.616 143.778C150.686 143.862 144.185 137.158 144.096 128.802C144.007 120.447 150.364 113.605 158.294 113.52C166.224 113.436 172.725 120.141 172.814 128.496Z" fill="url(#paint0_linear_648_828)"/>
<path d="M103.323 233.668C103.224 233.618 103.144 233.559 103.065 233.481C90.2244 220.723 63.9414 188.048 60.6189 158.435C56.7319 123.79 69.5606 99.0807 77.7684 88.1317C78.3579 87.3453 77.6996 86.2018 76.7235 86.3163C29.9051 91.8089 6.9296 89.9544 0.540109 88.1645C0.169372 88.0606 -0.123118 87.7333 0.0521957 87.3905C2.69735 82.2187 48.2533 70.0297 52.6679 59.6007C52.8582 59.1513 53.2743 58.8064 53.7616 58.7805C71.4312 57.8394 76.5448 56.4379 79.3315 55.1908C80.2927 54.7606 80.1167 53.1955 79.0833 52.9925C70.6743 51.3407 71.7012 54.0719 64.8741 44.1546C56.458 31.9289 46.2391 30.5648 45.0184 28.3609C44.9668 28.2678 44.9195 28.1738 44.8553 28.0888L24.9819 1.7536C24.3459 0.910856 25.133 -0.261737 26.141 0.0520592C76.0683 15.5938 172.084 45.6806 180.875 49.2257C192.086 53.746 241.748 63.8626 248.397 127.156C248.418 127.354 248.492 127.549 248.612 127.707L288 179.805L285.179 183.79C280.486 190.432 277.959 193.535 275.233 195.562L189.01 167.054C188.022 166.727 187.988 165.271 188.933 164.834C199.787 159.814 215.68 145.814 210.396 120.583C204.601 92.9092 175.623 83.9383 161.859 82.912C150.992 82.6705 126.18 86.0271 113.865 101.385C101.549 116.743 98.6201 127.767 97.4731 133.26C96.326 138.754 96.0285 150.828 98.1084 158.435C100.733 168.033 101.038 169.301 104.628 176.183C106.367 179.516 123.584 201.237 131.976 211.681C137.848 219.399 149.41 235.448 152.001 242.146C152.266 242.832 151.7 243.48 150.968 243.401C138.035 242.009 112.644 238.372 103.323 233.668Z" fill="url(#paint1_linear_648_828)"/>
</g>
<g clip-path="url(#clip0_648_828)">
<path d="M395.873 122.43H406.983V198H395.873V164.67H354.733V198H343.623V122.43H354.733V154.33H395.873V122.43ZM479.202 132.77H434.872V154.33H474.802V164.67H434.872V187.66H479.202V198H423.652V122.43H479.202V132.77ZM553.316 147.07C553.316 159.61 544.076 168.96 531.316 171.16L550.126 198H537.476L518.996 171.71H504.586V198H493.476V122.43H525.266C541.106 122.43 553.316 132.66 553.316 147.07ZM504.586 132.77V161.37H523.616C534.506 161.37 541.876 155.98 541.876 147.07C541.876 138.16 534.506 132.77 523.616 132.77H504.586ZM602.066 199.32C580.946 199.32 562.906 181.39 562.906 160.16C562.906 138.93 580.946 121.11 602.066 121.11C623.406 121.11 641.226 138.93 641.226 160.16C641.226 181.39 623.406 199.32 602.066 199.32ZM602.066 189.09C617.246 189.09 629.896 175.89 629.896 160.16C629.896 144.54 617.246 131.34 602.066 131.34C586.996 131.34 574.236 144.54 574.236 160.16C574.236 175.89 586.996 189.09 602.066 189.09ZM654.824 198V122.43H665.934L709.274 179.74V122.43H720.384V198H709.274L665.934 140.69V198H654.824ZM763.1 199.21C750.45 199.21 740 194.81 731.97 187.11L738.68 178.86C745.39 185.24 753.31 189.42 763.54 189.42C773.99 189.42 779.38 183.92 779.38 177.87C779.38 170.72 773.11 167.97 760.46 165.11C745.06 161.48 734.83 156.86 734.83 143.22C734.83 130.57 745.83 121 761.01 121C772.67 121 781.36 125.29 788.62 131.67L782.24 140.03C775.86 134.2 768.27 130.79 760.57 130.79C752.1 130.79 746.16 136.18 746.16 142.23C746.16 149.27 752.65 151.69 765.08 154.66C780.15 158.18 790.6 163.24 790.6 176.77C790.6 189.53 780.92 199.21 763.1 199.21ZM803.143 151.47L798.523 147.95C801.603 144.65 803.583 141.13 804.573 137.72C800.613 137.72 797.313 134.31 797.313 130.35C797.313 126.5 800.503 123.09 804.683 123.09C809.523 123.09 812.603 127.49 812.603 133.54C812.603 138.6 810.183 143.44 803.143 151.47ZM909.457 122.43H920.567V198H909.457V164.67H868.317V198H857.207V122.43H868.317V154.33H909.457V122.43ZM968.366 199.32C949.336 199.32 935.916 185.57 935.916 166.21V122.43H947.026V165.99C947.026 179.52 955.936 189.2 968.366 189.2C980.796 189.2 989.706 179.52 989.706 165.99V122.43H1000.82V166.21C1000.82 185.57 987.396 199.32 968.366 199.32ZM1016.19 198V122.43H1052.05C1064.7 122.43 1073.5 130.24 1073.5 141.24C1073.5 149.16 1069.54 154.11 1062.83 157.96C1071.52 162.25 1076.58 169.07 1076.58 177.43C1076.58 189.53 1066.9 198 1053.37 198H1016.19ZM1027.3 153.89H1049.19C1056.78 153.89 1062.17 149.38 1062.17 143.11C1062.17 136.84 1056.78 132.22 1049.19 132.22H1027.3V153.89ZM1027.3 188.21H1050.95C1059.31 188.21 1065.25 183.04 1065.25 175.78C1065.25 168.52 1059.31 163.35 1050.95 163.35H1027.3V188.21Z" fill="#395B8E"/>
</g>
<path d="M354.826 257.552C346.04 257.552 338.634 250.054 338.634 241.176C338.634 232.298 346.04 224.846 354.826 224.846C359.196 224.846 363.244 226.686 366.188 229.676L364.992 230.826C362.37 228.158 358.736 226.502 354.826 226.502C346.914 226.502 340.29 233.218 340.29 241.176C340.29 249.18 346.914 255.896 354.826 255.896C358.736 255.896 362.37 254.24 364.992 251.526L366.188 252.722C363.244 255.666 359.196 257.552 354.826 257.552ZM384.218 257.552C377.548 257.552 371.89 251.848 371.89 245.086C371.89 238.324 377.548 232.666 384.218 232.666C390.888 232.666 396.5 238.324 396.5 245.086C396.5 251.848 390.888 257.552 384.218 257.552ZM384.218 255.896C389.968 255.896 394.844 250.974 394.844 245.086C394.844 239.244 389.968 234.322 384.218 234.322C378.422 234.322 373.546 239.244 373.546 245.086C373.546 250.974 378.422 255.896 384.218 255.896ZM426.343 232.666C431.081 232.666 434.393 236.3 434.393 241.406V257.046H432.737V241.636C432.737 237.358 429.977 234.322 426.113 234.322C421.927 234.322 418.983 237.266 418.983 241.406V257.046H417.327V241.636C417.327 237.358 414.567 234.322 410.703 234.322C406.517 234.322 403.573 237.266 403.573 241.406V257.046H401.917V233.218H403.573V236.806C404.585 234.276 407.345 232.666 410.933 232.666C414.337 232.666 416.959 234.506 418.201 237.45C419.581 234.506 422.571 232.666 426.343 232.666ZM464.841 232.666C469.579 232.666 472.891 236.3 472.891 241.406V257.046H471.235V241.636C471.235 237.358 468.475 234.322 464.611 234.322C460.425 234.322 457.481 237.266 457.481 241.406V257.046H455.825V241.636C455.825 237.358 453.065 234.322 449.201 234.322C445.015 234.322 442.071 237.266 442.071 241.406V257.046H440.415V233.218H442.071V236.806C443.083 234.276 445.843 232.666 449.431 232.666C452.835 232.666 455.457 234.506 456.699 237.45C458.079 234.506 461.069 232.666 464.841 232.666ZM495.335 233.218H496.991V257H495.335V252.86C494.139 255.712 491.241 257.552 487.515 257.552C482.317 257.552 478.637 253.918 478.637 248.812V233.218H480.293V248.582C480.293 252.86 483.375 255.896 487.745 255.896C492.207 255.896 495.335 252.768 495.335 248.398V233.218ZM512.737 232.666C517.935 232.666 521.615 236.3 521.615 241.406V257H519.959V241.636C519.959 237.358 516.877 234.322 512.507 234.322C508.045 234.322 504.917 237.45 504.917 241.82V257H503.261V233.218H504.917V237.358C506.113 234.506 509.011 232.666 512.737 232.666ZM528.436 227.974C527.654 227.974 527.056 227.376 527.056 226.594C527.056 225.858 527.654 225.214 528.436 225.214C529.172 225.214 529.816 225.858 529.816 226.594C529.816 227.376 529.172 227.974 528.436 227.974ZM527.608 257V233.218H529.264V257H527.608ZM547.015 254.7L547.935 256.034C546.693 257 545.083 257.552 543.519 257.552C540.667 257.552 538.643 255.022 538.643 251.48V234.874H534.457V233.218H538.643V226.686H540.299V233.218H546.555V234.874H540.299V251.48C540.299 254.056 541.679 255.896 543.611 255.896C544.807 255.896 546.049 255.436 547.015 254.7ZM556.437 265.28C555.149 265.28 553.723 265.004 552.665 264.498L553.125 262.796C554.183 263.302 555.379 263.624 556.437 263.624C558.553 263.624 560.301 262.75 561.129 261.324L562.555 257.966L551.975 233.218H553.769L563.429 255.85L572.721 233.218H574.515L563.337 260.496C562.049 263.67 559.795 265.234 556.437 265.28ZM600.662 225.536C598.73 225.536 597.35 227.376 597.35 229.952V233.218H604.02V234.874H597.35V257H595.694V234.874H591.508V233.218H595.694V229.952C595.694 226.41 597.718 223.88 600.57 223.88C602.226 223.88 603.698 224.386 604.986 225.398L604.066 226.686C603.146 225.904 602.042 225.536 600.662 225.536ZM618.485 257.552C611.815 257.552 606.157 251.848 606.157 245.086C606.157 238.324 611.815 232.666 618.485 232.666C625.155 232.666 630.767 238.324 630.767 245.086C630.767 251.848 625.155 257.552 618.485 257.552ZM618.485 255.896C624.235 255.896 629.111 250.974 629.111 245.086C629.111 239.244 624.235 234.322 618.485 234.322C612.689 234.322 607.813 239.244 607.813 245.086C607.813 250.974 612.689 255.896 618.485 255.896ZM637.841 238.646C638.853 235.288 642.671 232.666 647.041 232.666V234.322C641.659 234.322 637.841 238.232 637.841 243.706V257H636.185V233.218H637.841V238.646ZM675.97 255.896C679.374 255.896 682.778 254.792 684.756 252.63L685.906 253.872C683.928 256.034 679.788 257.552 675.97 257.552C669.622 257.552 664.286 251.848 664.286 245.04C664.286 238.094 669.438 232.666 675.97 232.666C682.778 232.666 687.286 237.956 687.286 245.868H665.988C666.356 251.388 670.818 255.896 675.97 255.896ZM675.97 234.322C670.634 234.322 666.356 238.646 665.988 244.212H685.63C685.354 238.278 681.582 234.322 675.97 234.322ZM700.967 257L690.065 233.218H691.859L701.473 254.194L711.087 233.218H712.881L701.979 257H700.967ZM727.496 255.896C730.9 255.896 734.304 254.792 736.282 252.63L737.432 253.872C735.454 256.034 731.314 257.552 727.496 257.552C721.148 257.552 715.812 251.848 715.812 245.04C715.812 238.094 720.964 232.666 727.496 232.666C734.304 232.666 738.812 237.956 738.812 245.868H717.514C717.882 251.388 722.344 255.896 727.496 255.896ZM727.496 234.322C722.16 234.322 717.882 238.646 717.514 244.212H737.156C736.88 238.278 733.108 234.322 727.496 234.322ZM745.743 238.646C746.755 235.288 750.573 232.666 754.943 232.666V234.322C749.561 234.322 745.743 238.232 745.743 243.706V257H744.087V233.218H745.743V238.646ZM763.482 265.28C762.194 265.28 760.768 265.004 759.71 264.498L760.17 262.796C761.228 263.302 762.424 263.624 763.482 263.624C765.598 263.624 767.346 262.75 768.174 261.324L769.6 257.966L759.02 233.218H760.814L770.474 255.85L779.766 233.218H781.56L770.382 260.496C769.094 263.67 766.84 265.234 763.482 265.28ZM795.478 257.552C788.808 257.552 783.15 251.848 783.15 245.086C783.15 238.324 788.808 232.666 795.478 232.666C802.148 232.666 807.76 238.324 807.76 245.086C807.76 251.848 802.148 257.552 795.478 257.552ZM795.478 255.896C801.228 255.896 806.104 250.974 806.104 245.086C806.104 239.244 801.228 234.322 795.478 234.322C789.682 234.322 784.806 239.244 784.806 245.086C784.806 250.974 789.682 255.896 795.478 255.896ZM822.653 232.666C827.851 232.666 831.531 236.3 831.531 241.406V257H829.875V241.636C829.875 237.358 826.793 234.322 822.423 234.322C817.961 234.322 814.833 237.45 814.833 241.82V257H813.177V233.218H814.833V237.358C816.029 234.506 818.927 232.666 822.653 232.666ZM848.38 255.896C851.784 255.896 855.188 254.792 857.166 252.63L858.316 253.872C856.338 256.034 852.198 257.552 848.38 257.552C842.032 257.552 836.696 251.848 836.696 245.04C836.696 238.094 841.848 232.666 848.38 232.666C855.188 232.666 859.696 237.956 859.696 245.868H838.398C838.766 251.388 843.228 255.896 848.38 255.896ZM848.38 234.322C843.044 234.322 838.766 238.646 838.398 244.212H858.04C857.764 238.278 853.992 234.322 848.38 234.322Z" fill="black"/>
<defs>
<filter id="filter0_n_648_828" x="0" y="0" width="288" height="243.408" filterUnits="userSpaceOnUse" color-interpolation-filters="sRGB">
<feFlood flood-opacity="0" result="BackgroundImageFix"/>
<feBlend mode="normal" in="SourceGraphic" in2="BackgroundImageFix" result="shape"/>
<feTurbulence type="fractalNoise" baseFrequency="5.5215282440185547 5.5215282440185547" stitchTiles="stitch" numOctaves="3" result="noise" seed="5563" />
<feColorMatrix in="noise" type="luminanceToAlpha" result="alphaNoise" />
<feComponentTransfer in="alphaNoise" result="coloredNoise1">
<feFuncA type="discrete" tableValues="1 1 1 1 1 1 1 1 1 1 1 1 1 1 1 1 1 1 1 1 1 1 1 1 1 1 1 1 1 1 1 1 1 1 1 1 1 1 1 1 1 1 1 1 1 1 1 1 1 1 1 0 0 0 0 0 0 0 0 0 0 0 0 0 0 0 0 0 0 0 0 0 0 0 0 0 0 0 0 0 0 0 0 0 0 0 0 0 0 0 0 0 0 0 0 0 0 0 0 0 "/>
</feComponentTransfer>
<feComposite operator="in" in2="shape" in="coloredNoise1" result="noise1Clipped" />
<feFlood flood-color="rgba(0, 0, 0, 0.25)" result="color1Flood" />
<feComposite operator="in" in2="noise1Clipped" in="color1Flood" result="color1" />
<feMerge result="effect1_noise_648_828">
<feMergeNode in="shape" />
<feMergeNode in="color1" />
</feMerge>
</filter>
<linearGradient id="paint0_linear_648_828" x1="-13.7747" y1="-6.62064" x2="257.527" y2="256.35" gradientUnits="userSpaceOnUse">
<stop stop-color="#6EADC8"/>
<stop offset="1" stop-color="#2F4B93"/>
</linearGradient>
<linearGradient id="paint1_linear_648_828" x1="-10.2099" y1="-11.2648" x2="261.092" y2="251.706" gradientUnits="userSpaceOnUse">
<stop stop-color="#6EADC8"/>
<stop offset="1" stop-color="#2F4B93"/>
</linearGradient>
<clipPath id="clip0_648_828">
<rect width="754" height="92" fill="white" transform="translate(325 111)"/>
</clipPath>
</defs>
</svg>
